<mxfile host="Electron" modified="2023-11-29T15:44:43.188Z" agent="Mozilla/5.0 (X11; Linux x86_64) AppleWebKit/537.36 (KHTML, like Gecko) draw.io/22.1.2 Chrome/114.0.5735.289 Electron/25.9.4 Safari/537.36" etag="oooYPBu6xwOsFPEbjKAP" version="22.1.2" type="device" pages="2">
  <diagram name="V1-22-11-23" id="inYiqGimEMdbK-a-PdQN">
    <mxGraphModel dx="1234" dy="1198" grid="1" gridSize="10" guides="1" tooltips="1" connect="1" arrows="1" fold="1" page="1" pageScale="1" pageWidth="1169" pageHeight="827" math="0" shadow="0">
      <root>
        <mxCell id="0" />
        <mxCell id="1" parent="0" />
        <mxCell id="P04yTUuKGdVn5KuNa-YI-19" value="" style="rounded=1;whiteSpace=wrap;html=1;fillColor=none;arcSize=5;strokeColor=#000000;strokeWidth=2;" parent="1" vertex="1">
          <mxGeometry x="1080" y="429" width="420" height="380" as="geometry" />
        </mxCell>
        <mxCell id="P04yTUuKGdVn5KuNa-YI-9" value="" style="rounded=1;whiteSpace=wrap;html=1;fillColor=none;arcSize=5;strokeColor=#000000;strokeWidth=2;" parent="1" vertex="1">
          <mxGeometry x="710" y="15" width="400" height="360" as="geometry" />
        </mxCell>
        <mxCell id="P04yTUuKGdVn5KuNa-YI-21" value="" style="rounded=1;whiteSpace=wrap;html=1;fillColor=none;arcSize=5;strokeColor=#000000;strokeWidth=2;" parent="1" vertex="1">
          <mxGeometry x="11" y="15" width="160" height="210" as="geometry" />
        </mxCell>
        <mxCell id="P04yTUuKGdVn5KuNa-YI-1" value="" style="rounded=1;whiteSpace=wrap;html=1;fillColor=none;arcSize=5;strokeColor=#000000;strokeWidth=2;" parent="1" vertex="1">
          <mxGeometry x="187" y="15" width="500" height="425" as="geometry" />
        </mxCell>
        <mxCell id="P04yTUuKGdVn5KuNa-YI-2" value="&lt;b&gt;Жизненный цикл заказа&lt;/b&gt;" style="text;html=1;strokeColor=none;fillColor=none;align=center;verticalAlign=middle;whiteSpace=wrap;rounded=1;" parent="1" vertex="1">
          <mxGeometry x="333" y="30" width="181" height="30" as="geometry" />
        </mxCell>
        <mxCell id="P04yTUuKGdVn5KuNa-YI-3" value="" style="rounded=1;whiteSpace=wrap;html=1;fillColor=none;arcSize=5;strokeColor=#000000;strokeWidth=2;" parent="1" vertex="1">
          <mxGeometry x="762.62" y="405" width="290" height="230" as="geometry" />
        </mxCell>
        <mxCell id="P04yTUuKGdVn5KuNa-YI-4" value="&lt;b&gt;Создание и управление заказом&lt;/b&gt;" style="text;html=1;strokeColor=none;fillColor=none;align=center;verticalAlign=middle;whiteSpace=wrap;rounded=1;" parent="1" vertex="1">
          <mxGeometry x="822.62" y="415" width="181" height="30" as="geometry" />
        </mxCell>
        <mxCell id="P04yTUuKGdVn5KuNa-YI-5" value="" style="rounded=1;whiteSpace=wrap;html=1;fillColor=none;arcSize=5;strokeColor=#000000;strokeWidth=2;" parent="1" vertex="1">
          <mxGeometry x="204" y="470" width="420" height="330" as="geometry" />
        </mxCell>
        <mxCell id="P04yTUuKGdVn5KuNa-YI-6" value="&lt;b&gt;Система ставок&lt;/b&gt;" style="text;html=1;strokeColor=none;fillColor=none;align=center;verticalAlign=middle;whiteSpace=wrap;rounded=1;" parent="1" vertex="1">
          <mxGeometry x="322.5" y="475" width="181" height="30" as="geometry" />
        </mxCell>
        <mxCell id="P04yTUuKGdVn5KuNa-YI-7" value="" style="rounded=1;whiteSpace=wrap;html=1;fillColor=none;arcSize=5;strokeColor=#000000;strokeWidth=2;" parent="1" vertex="1">
          <mxGeometry x="1540" y="15" width="500" height="510" as="geometry" />
        </mxCell>
        <mxCell id="P04yTUuKGdVn5KuNa-YI-8" value="&lt;b&gt;Инвентаризация и склад&lt;/b&gt;" style="text;html=1;strokeColor=none;fillColor=none;align=center;verticalAlign=middle;whiteSpace=wrap;rounded=1;" parent="1" vertex="1">
          <mxGeometry x="1715.75" y="26" width="181" height="30" as="geometry" />
        </mxCell>
        <mxCell id="P04yTUuKGdVn5KuNa-YI-10" value="&lt;b&gt;Отдел контроля качества&lt;/b&gt;" style="text;html=1;strokeColor=none;fillColor=none;align=center;verticalAlign=middle;whiteSpace=wrap;rounded=1;" parent="1" vertex="1">
          <mxGeometry x="829.5" y="25" width="181" height="30" as="geometry" />
        </mxCell>
        <mxCell id="P04yTUuKGdVn5KuNa-YI-14" value="" style="rounded=1;whiteSpace=wrap;html=1;fillColor=none;arcSize=5;strokeColor=#000000;strokeWidth=2;" parent="1" vertex="1">
          <mxGeometry x="795" y="691" width="230" height="99" as="geometry" />
        </mxCell>
        <mxCell id="P04yTUuKGdVn5KuNa-YI-15" value="&lt;b&gt;Система мэтчинга&lt;/b&gt;" style="text;html=1;strokeColor=none;fillColor=none;align=center;verticalAlign=middle;whiteSpace=wrap;rounded=1;" parent="1" vertex="1">
          <mxGeometry x="819.5" y="691" width="181" height="30" as="geometry" />
        </mxCell>
        <mxCell id="P04yTUuKGdVn5KuNa-YI-16" value="" style="rounded=1;whiteSpace=wrap;html=1;fillColor=none;arcSize=5;strokeColor=#000000;strokeWidth=2;" parent="1" vertex="1">
          <mxGeometry x="1130" y="15" width="370" height="380" as="geometry" />
        </mxCell>
        <mxCell id="P04yTUuKGdVn5KuNa-YI-17" value="&lt;b&gt;Выплаты денежных средств&lt;/b&gt;" style="text;html=1;strokeColor=none;fillColor=none;align=center;verticalAlign=middle;whiteSpace=wrap;rounded=1;" parent="1" vertex="1">
          <mxGeometry x="1224.5" y="25" width="181" height="30" as="geometry" />
        </mxCell>
        <mxCell id="P04yTUuKGdVn5KuNa-YI-20" value="&lt;b&gt;Регистрация и тестирование пользователя&lt;/b&gt;" style="text;html=1;strokeColor=none;fillColor=none;align=center;verticalAlign=middle;whiteSpace=wrap;rounded=1;" parent="1" vertex="1">
          <mxGeometry x="1195" y="449" width="181" height="30" as="geometry" />
        </mxCell>
        <mxCell id="P04yTUuKGdVn5KuNa-YI-22" value="&lt;b&gt;Легенда&lt;/b&gt;" style="text;html=1;strokeColor=none;fillColor=none;align=center;verticalAlign=middle;whiteSpace=wrap;rounded=1;" parent="1" vertex="1">
          <mxGeometry x="31" y="15" width="100" height="30" as="geometry" />
        </mxCell>
        <mxCell id="P04yTUuKGdVn5KuNa-YI-24" value="" style="endArrow=classic;html=1;rounded=0;" parent="1" edge="1">
          <mxGeometry width="50" height="50" relative="1" as="geometry">
            <mxPoint x="21" y="157" as="sourcePoint" />
            <mxPoint x="71" y="157" as="targetPoint" />
          </mxGeometry>
        </mxCell>
        <mxCell id="P04yTUuKGdVn5KuNa-YI-25" value="" style="endArrow=classic;html=1;rounded=0;dashed=1;dashPattern=8 8;strokeColor=#97D077;" parent="1" edge="1">
          <mxGeometry width="50" height="50" relative="1" as="geometry">
            <mxPoint x="21" y="195" as="sourcePoint" />
            <mxPoint x="71" y="195" as="targetPoint" />
          </mxGeometry>
        </mxCell>
        <mxCell id="P04yTUuKGdVn5KuNa-YI-30" style="edgeStyle=orthogonalEdgeStyle;rounded=0;orthogonalLoop=1;jettySize=auto;html=1;entryX=0.5;entryY=1;entryDx=0;entryDy=0;" parent="1" source="P04yTUuKGdVn5KuNa-YI-26" target="P04yTUuKGdVn5KuNa-YI-29" edge="1">
          <mxGeometry relative="1" as="geometry" />
        </mxCell>
        <mxCell id="P04yTUuKGdVn5KuNa-YI-31" value="has_many" style="edgeLabel;html=1;align=center;verticalAlign=middle;resizable=0;points=[];" parent="P04yTUuKGdVn5KuNa-YI-30" vertex="1" connectable="0">
          <mxGeometry x="-0.1287" y="-1" relative="1" as="geometry">
            <mxPoint as="offset" />
          </mxGeometry>
        </mxCell>
        <mxCell id="P04yTUuKGdVn5KuNa-YI-26" value="Client" style="rounded=1;whiteSpace=wrap;html=1;fillColor=none;arcSize=5;strokeColor=#000000;" parent="1" vertex="1">
          <mxGeometry x="786.12" y="575" width="60" height="50" as="geometry" />
        </mxCell>
        <mxCell id="P04yTUuKGdVn5KuNa-YI-27" value="Name" style="rounded=1;whiteSpace=wrap;html=1;fillColor=none;arcSize=5;strokeColor=#000000;" parent="1" vertex="1">
          <mxGeometry x="21" y="45" width="40" height="30" as="geometry" />
        </mxCell>
        <mxCell id="P04yTUuKGdVn5KuNa-YI-212" style="edgeStyle=orthogonalEdgeStyle;rounded=0;orthogonalLoop=1;jettySize=auto;html=1;exitX=0;exitY=0.5;exitDx=0;exitDy=0;dashed=1;dashPattern=12 12;strokeColor=#97D077;strokeWidth=2;" parent="1" source="P04yTUuKGdVn5KuNa-YI-29" target="P04yTUuKGdVn5KuNa-YI-47" edge="1">
          <mxGeometry relative="1" as="geometry">
            <Array as="points">
              <mxPoint x="510" y="480" />
              <mxPoint x="510" y="270" />
            </Array>
          </mxGeometry>
        </mxCell>
        <mxCell id="P04yTUuKGdVn5KuNa-YI-229" style="edgeStyle=orthogonalEdgeStyle;rounded=0;orthogonalLoop=1;jettySize=auto;html=1;exitX=0;exitY=0.75;exitDx=0;exitDy=0;entryX=1;entryY=0.25;entryDx=0;entryDy=0;dashed=1;dashPattern=12 12;strokeColor=#97D077;movable=1;resizable=1;rotatable=1;deletable=1;editable=1;locked=0;connectable=1;strokeWidth=2;" parent="1" source="P04yTUuKGdVn5KuNa-YI-29" target="P04yTUuKGdVn5KuNa-YI-121" edge="1">
          <mxGeometry relative="1" as="geometry">
            <Array as="points">
              <mxPoint x="786" y="500" />
              <mxPoint x="720" y="500" />
              <mxPoint x="720" y="610" />
              <mxPoint x="330" y="610" />
              <mxPoint x="330" y="638" />
            </Array>
          </mxGeometry>
        </mxCell>
        <mxCell id="P04yTUuKGdVn5KuNa-YI-29" value="Order" style="rounded=1;whiteSpace=wrap;html=1;fillColor=none;arcSize=5;strokeColor=#000000;" parent="1" vertex="1">
          <mxGeometry x="786.12" y="455" width="60" height="50" as="geometry" />
        </mxCell>
        <mxCell id="P04yTUuKGdVn5KuNa-YI-34" value="" style="edgeStyle=orthogonalEdgeStyle;rounded=0;orthogonalLoop=1;jettySize=auto;html=1;" parent="1" source="P04yTUuKGdVn5KuNa-YI-29" target="P04yTUuKGdVn5KuNa-YI-33" edge="1">
          <mxGeometry relative="1" as="geometry" />
        </mxCell>
        <mxCell id="P04yTUuKGdVn5KuNa-YI-35" value="has_one" style="edgeLabel;html=1;align=center;verticalAlign=middle;resizable=0;points=[];" parent="P04yTUuKGdVn5KuNa-YI-34" vertex="1" connectable="0">
          <mxGeometry x="-0.0303" y="-2" relative="1" as="geometry">
            <mxPoint as="offset" />
          </mxGeometry>
        </mxCell>
        <mxCell id="P04yTUuKGdVn5KuNa-YI-33" value="Order type" style="rounded=1;whiteSpace=wrap;html=1;fillColor=none;arcSize=5;strokeColor=#000000;" parent="1" vertex="1">
          <mxGeometry x="932.62" y="455" width="85" height="50" as="geometry" />
        </mxCell>
        <mxCell id="P04yTUuKGdVn5KuNa-YI-36" value="Manager" style="rounded=1;whiteSpace=wrap;html=1;fillColor=none;arcSize=5;strokeColor=#000000;" parent="1" vertex="1">
          <mxGeometry x="932.62" y="565" width="60" height="50" as="geometry" />
        </mxCell>
        <mxCell id="P04yTUuKGdVn5KuNa-YI-44" value="" style="edgeStyle=orthogonalEdgeStyle;rounded=0;orthogonalLoop=1;jettySize=auto;html=1;" parent="1" source="P04yTUuKGdVn5KuNa-YI-40" target="P04yTUuKGdVn5KuNa-YI-43" edge="1">
          <mxGeometry relative="1" as="geometry" />
        </mxCell>
        <mxCell id="P04yTUuKGdVn5KuNa-YI-45" value="has_one" style="edgeLabel;html=1;align=center;verticalAlign=middle;resizable=0;points=[];" parent="P04yTUuKGdVn5KuNa-YI-44" vertex="1" connectable="0">
          <mxGeometry x="-0.0888" relative="1" as="geometry">
            <mxPoint as="offset" />
          </mxGeometry>
        </mxCell>
        <mxCell id="P04yTUuKGdVn5KuNa-YI-40" value="Order" style="rounded=1;whiteSpace=wrap;html=1;fillColor=none;arcSize=5;strokeColor=#000000;" parent="1" vertex="1">
          <mxGeometry x="811" y="721" width="60" height="50" as="geometry" />
        </mxCell>
        <mxCell id="P04yTUuKGdVn5KuNa-YI-43" value="Worker" style="rounded=1;whiteSpace=wrap;html=1;fillColor=none;arcSize=5;strokeColor=#000000;" parent="1" vertex="1">
          <mxGeometry x="950" y="721" width="60" height="50" as="geometry" />
        </mxCell>
        <mxCell id="P04yTUuKGdVn5KuNa-YI-64" value="" style="edgeStyle=orthogonalEdgeStyle;rounded=0;orthogonalLoop=1;jettySize=auto;html=1;" parent="1" source="P04yTUuKGdVn5KuNa-YI-47" target="P04yTUuKGdVn5KuNa-YI-63" edge="1">
          <mxGeometry relative="1" as="geometry" />
        </mxCell>
        <mxCell id="P04yTUuKGdVn5KuNa-YI-65" value="has_many" style="edgeLabel;html=1;align=center;verticalAlign=middle;resizable=0;points=[];" parent="P04yTUuKGdVn5KuNa-YI-64" vertex="1" connectable="0">
          <mxGeometry x="-0.2061" y="-1" relative="1" as="geometry">
            <mxPoint as="offset" />
          </mxGeometry>
        </mxCell>
        <mxCell id="P04yTUuKGdVn5KuNa-YI-77" style="edgeStyle=orthogonalEdgeStyle;rounded=0;orthogonalLoop=1;jettySize=auto;html=1;exitX=0;exitY=0.75;exitDx=0;exitDy=0;entryX=0.5;entryY=0;entryDx=0;entryDy=0;" parent="1" source="P04yTUuKGdVn5KuNa-YI-47" target="P04yTUuKGdVn5KuNa-YI-76" edge="1">
          <mxGeometry relative="1" as="geometry" />
        </mxCell>
        <mxCell id="P04yTUuKGdVn5KuNa-YI-78" value="has_many" style="edgeLabel;html=1;align=center;verticalAlign=middle;resizable=0;points=[];" parent="P04yTUuKGdVn5KuNa-YI-77" vertex="1" connectable="0">
          <mxGeometry x="0.0927" relative="1" as="geometry">
            <mxPoint as="offset" />
          </mxGeometry>
        </mxCell>
        <mxCell id="P04yTUuKGdVn5KuNa-YI-47" value="Order" style="rounded=1;whiteSpace=wrap;html=1;fillColor=none;arcSize=5;strokeColor=#000000;" parent="1" vertex="1">
          <mxGeometry x="384" y="235" width="60" height="50" as="geometry" />
        </mxCell>
        <mxCell id="P04yTUuKGdVn5KuNa-YI-53" value="" style="edgeStyle=orthogonalEdgeStyle;rounded=0;orthogonalLoop=1;jettySize=auto;html=1;" parent="1" source="P04yTUuKGdVn5KuNa-YI-48" target="P04yTUuKGdVn5KuNa-YI-47" edge="1">
          <mxGeometry relative="1" as="geometry" />
        </mxCell>
        <mxCell id="P04yTUuKGdVn5KuNa-YI-54" value="has_many" style="edgeLabel;html=1;align=center;verticalAlign=middle;resizable=0;points=[];" parent="P04yTUuKGdVn5KuNa-YI-53" vertex="1" connectable="0">
          <mxGeometry x="-0.0759" relative="1" as="geometry">
            <mxPoint as="offset" />
          </mxGeometry>
        </mxCell>
        <mxCell id="P04yTUuKGdVn5KuNa-YI-61" value="" style="edgeStyle=orthogonalEdgeStyle;rounded=0;orthogonalLoop=1;jettySize=auto;html=1;" parent="1" source="P04yTUuKGdVn5KuNa-YI-48" target="P04yTUuKGdVn5KuNa-YI-60" edge="1">
          <mxGeometry relative="1" as="geometry" />
        </mxCell>
        <mxCell id="P04yTUuKGdVn5KuNa-YI-62" value="has_one" style="edgeLabel;html=1;align=center;verticalAlign=middle;resizable=0;points=[];" parent="P04yTUuKGdVn5KuNa-YI-61" vertex="1" connectable="0">
          <mxGeometry x="-0.1961" y="-1" relative="1" as="geometry">
            <mxPoint as="offset" />
          </mxGeometry>
        </mxCell>
        <mxCell id="P04yTUuKGdVn5KuNa-YI-48" value="Client" style="rounded=1;whiteSpace=wrap;html=1;fillColor=none;arcSize=5;strokeColor=#000000;" parent="1" vertex="1">
          <mxGeometry x="384" y="70" width="60" height="50" as="geometry" />
        </mxCell>
        <mxCell id="P04yTUuKGdVn5KuNa-YI-51" style="edgeStyle=orthogonalEdgeStyle;rounded=0;orthogonalLoop=1;jettySize=auto;html=1;" parent="1" source="P04yTUuKGdVn5KuNa-YI-49" target="P04yTUuKGdVn5KuNa-YI-47" edge="1">
          <mxGeometry relative="1" as="geometry">
            <Array as="points" />
          </mxGeometry>
        </mxCell>
        <mxCell id="P04yTUuKGdVn5KuNa-YI-52" value="has_many" style="edgeLabel;html=1;align=center;verticalAlign=middle;resizable=0;points=[];" parent="P04yTUuKGdVn5KuNa-YI-51" vertex="1" connectable="0">
          <mxGeometry x="-0.4663" y="2" relative="1" as="geometry">
            <mxPoint as="offset" />
          </mxGeometry>
        </mxCell>
        <mxCell id="P04yTUuKGdVn5KuNa-YI-49" value="Worker" style="rounded=1;whiteSpace=wrap;html=1;fillColor=none;arcSize=5;strokeColor=#000000;" parent="1" vertex="1">
          <mxGeometry x="214" y="235" width="60" height="50" as="geometry" />
        </mxCell>
        <mxCell id="P04yTUuKGdVn5KuNa-YI-56" value="" style="edgeStyle=orthogonalEdgeStyle;rounded=0;orthogonalLoop=1;jettySize=auto;html=1;" parent="1" source="P04yTUuKGdVn5KuNa-YI-55" target="P04yTUuKGdVn5KuNa-YI-47" edge="1">
          <mxGeometry relative="1" as="geometry" />
        </mxCell>
        <mxCell id="P04yTUuKGdVn5KuNa-YI-57" value="has_one" style="edgeLabel;html=1;align=center;verticalAlign=middle;resizable=0;points=[];" parent="P04yTUuKGdVn5KuNa-YI-56" vertex="1" connectable="0">
          <mxGeometry x="0.0577" y="-1" relative="1" as="geometry">
            <mxPoint as="offset" />
          </mxGeometry>
        </mxCell>
        <mxCell id="P04yTUuKGdVn5KuNa-YI-55" value="Order status" style="rounded=1;whiteSpace=wrap;html=1;fillColor=none;arcSize=5;strokeColor=#000000;" parent="1" vertex="1">
          <mxGeometry x="537" y="235" width="60" height="50" as="geometry" />
        </mxCell>
        <mxCell id="P04yTUuKGdVn5KuNa-YI-59" value="created&lt;br&gt;waiting_for_consumables&lt;br&gt;in_progress&lt;br&gt;cancelled&lt;br&gt;completed" style="text;html=1;strokeColor=none;fillColor=none;align=center;verticalAlign=middle;whiteSpace=wrap;rounded=0;" parent="1" vertex="1">
          <mxGeometry x="510" y="155" width="180" height="80" as="geometry" />
        </mxCell>
        <mxCell id="P04yTUuKGdVn5KuNa-YI-60" value="Client information" style="rounded=1;whiteSpace=wrap;html=1;fillColor=none;arcSize=5;strokeColor=#97D077;" parent="1" vertex="1">
          <mxGeometry x="537" y="70" width="70" height="55" as="geometry" />
        </mxCell>
        <mxCell id="P04yTUuKGdVn5KuNa-YI-63" value="Consumable" style="rounded=1;whiteSpace=wrap;html=1;fillColor=none;arcSize=5;strokeColor=#000000;" parent="1" vertex="1">
          <mxGeometry x="372.5" y="345" width="83" height="50" as="geometry" />
        </mxCell>
        <mxCell id="P04yTUuKGdVn5KuNa-YI-69" value="Order information" style="rounded=1;whiteSpace=wrap;html=1;fillColor=none;arcSize=5;strokeColor=#97D077;" parent="1" vertex="1">
          <mxGeometry x="257" y="120" width="70" height="55" as="geometry" />
        </mxCell>
        <mxCell id="P04yTUuKGdVn5KuNa-YI-70" value="deadline" style="text;html=1;strokeColor=none;fillColor=none;align=center;verticalAlign=middle;whiteSpace=wrap;rounded=0;" parent="1" vertex="1">
          <mxGeometry x="255" y="95" width="63" height="25" as="geometry" />
        </mxCell>
        <mxCell id="P04yTUuKGdVn5KuNa-YI-72" value="Worker information" style="rounded=1;whiteSpace=wrap;html=1;fillColor=none;arcSize=5;strokeColor=#97D077;" parent="1" vertex="1">
          <mxGeometry x="214" y="345" width="73" height="60" as="geometry" />
        </mxCell>
        <mxCell id="P04yTUuKGdVn5KuNa-YI-84" value="" style="edgeStyle=orthogonalEdgeStyle;rounded=0;orthogonalLoop=1;jettySize=auto;html=1;" parent="1" source="P04yTUuKGdVn5KuNa-YI-73" target="P04yTUuKGdVn5KuNa-YI-83" edge="1">
          <mxGeometry relative="1" as="geometry" />
        </mxCell>
        <mxCell id="P04yTUuKGdVn5KuNa-YI-85" value="has_many" style="edgeLabel;html=1;align=center;verticalAlign=middle;resizable=0;points=[];" parent="P04yTUuKGdVn5KuNa-YI-84" vertex="1" connectable="0">
          <mxGeometry x="-0.1026" y="-3" relative="1" as="geometry">
            <mxPoint as="offset" />
          </mxGeometry>
        </mxCell>
        <mxCell id="P04yTUuKGdVn5KuNa-YI-73" value="Manager" style="rounded=1;whiteSpace=wrap;html=1;fillColor=none;arcSize=5;strokeColor=#000000;" parent="1" vertex="1">
          <mxGeometry x="890" y="58" width="60" height="50" as="geometry" />
        </mxCell>
        <mxCell id="P04yTUuKGdVn5KuNa-YI-88" value="" style="edgeStyle=orthogonalEdgeStyle;rounded=0;orthogonalLoop=1;jettySize=auto;html=1;" parent="1" source="P04yTUuKGdVn5KuNa-YI-74" target="P04yTUuKGdVn5KuNa-YI-83" edge="1">
          <mxGeometry relative="1" as="geometry" />
        </mxCell>
        <mxCell id="P04yTUuKGdVn5KuNa-YI-89" value="has_one" style="edgeLabel;html=1;align=center;verticalAlign=middle;resizable=0;points=[];" parent="P04yTUuKGdVn5KuNa-YI-88" vertex="1" connectable="0">
          <mxGeometry x="-0.2015" relative="1" as="geometry">
            <mxPoint as="offset" />
          </mxGeometry>
        </mxCell>
        <mxCell id="P04yTUuKGdVn5KuNa-YI-74" value="Order information" style="rounded=1;whiteSpace=wrap;html=1;fillColor=none;arcSize=5;strokeColor=#97D077;" parent="1" vertex="1">
          <mxGeometry x="730" y="185.5" width="70" height="55" as="geometry" />
        </mxCell>
        <mxCell id="P04yTUuKGdVn5KuNa-YI-75" value="deadline&lt;br&gt;status&lt;br&gt;consumables" style="text;html=1;strokeColor=none;fillColor=none;align=center;verticalAlign=middle;whiteSpace=wrap;rounded=0;" parent="1" vertex="1">
          <mxGeometry x="730" y="134" width="63" height="51" as="geometry" />
        </mxCell>
        <mxCell id="P04yTUuKGdVn5KuNa-YI-76" value="Order&#39;s audit log" style="rounded=1;whiteSpace=wrap;html=1;fillColor=none;arcSize=5;strokeColor=#000000;" parent="1" vertex="1">
          <mxGeometry x="307" y="365" width="60" height="50" as="geometry" />
        </mxCell>
        <mxCell id="P04yTUuKGdVn5KuNa-YI-92" style="edgeStyle=orthogonalEdgeStyle;rounded=0;orthogonalLoop=1;jettySize=auto;html=1;exitX=0.75;exitY=0;exitDx=0;exitDy=0;entryX=0.25;entryY=1;entryDx=0;entryDy=0;" parent="1" source="P04yTUuKGdVn5KuNa-YI-79" target="P04yTUuKGdVn5KuNa-YI-83" edge="1">
          <mxGeometry relative="1" as="geometry" />
        </mxCell>
        <mxCell id="P04yTUuKGdVn5KuNa-YI-93" value="has_one" style="edgeLabel;html=1;align=center;verticalAlign=middle;resizable=0;points=[];" parent="P04yTUuKGdVn5KuNa-YI-92" vertex="1" connectable="0">
          <mxGeometry x="-0.0563" relative="1" as="geometry">
            <mxPoint as="offset" />
          </mxGeometry>
        </mxCell>
        <mxCell id="P04yTUuKGdVn5KuNa-YI-79" value="Order&#39;s audit log" style="rounded=1;whiteSpace=wrap;html=1;fillColor=none;arcSize=5;strokeColor=#97D077;" parent="1" vertex="1">
          <mxGeometry x="793" y="295" width="60" height="50" as="geometry" />
        </mxCell>
        <mxCell id="P04yTUuKGdVn5KuNa-YI-86" value="" style="edgeStyle=orthogonalEdgeStyle;rounded=0;orthogonalLoop=1;jettySize=auto;html=1;" parent="1" source="P04yTUuKGdVn5KuNa-YI-80" target="P04yTUuKGdVn5KuNa-YI-83" edge="1">
          <mxGeometry relative="1" as="geometry" />
        </mxCell>
        <mxCell id="P04yTUuKGdVn5KuNa-YI-87" value="has_one" style="edgeLabel;html=1;align=center;verticalAlign=middle;resizable=0;points=[];" parent="P04yTUuKGdVn5KuNa-YI-86" vertex="1" connectable="0">
          <mxGeometry x="0.0911" y="-2" relative="1" as="geometry">
            <mxPoint as="offset" />
          </mxGeometry>
        </mxCell>
        <mxCell id="P04yTUuKGdVn5KuNa-YI-80" value="Client information" style="rounded=1;whiteSpace=wrap;html=1;fillColor=none;arcSize=5;strokeColor=#97D077;" parent="1" vertex="1">
          <mxGeometry x="1020" y="185.5" width="70" height="55" as="geometry" />
        </mxCell>
        <mxCell id="P04yTUuKGdVn5KuNa-YI-82" value="Worker information" style="rounded=1;whiteSpace=wrap;html=1;fillColor=none;arcSize=5;strokeColor=#97D077;" parent="1" vertex="1">
          <mxGeometry x="970" y="295" width="73" height="60" as="geometry" />
        </mxCell>
        <mxCell id="P04yTUuKGdVn5KuNa-YI-90" style="edgeStyle=orthogonalEdgeStyle;rounded=0;orthogonalLoop=1;jettySize=auto;html=1;exitX=0.5;exitY=0;exitDx=0;exitDy=0;entryX=0.75;entryY=1;entryDx=0;entryDy=0;" parent="1" source="P04yTUuKGdVn5KuNa-YI-82" target="P04yTUuKGdVn5KuNa-YI-83" edge="1">
          <mxGeometry relative="1" as="geometry" />
        </mxCell>
        <mxCell id="P04yTUuKGdVn5KuNa-YI-91" value="has_one" style="edgeLabel;html=1;align=center;verticalAlign=middle;resizable=0;points=[];" parent="P04yTUuKGdVn5KuNa-YI-90" vertex="1" connectable="0">
          <mxGeometry x="-0.1311" y="3" relative="1" as="geometry">
            <mxPoint as="offset" />
          </mxGeometry>
        </mxCell>
        <mxCell id="P04yTUuKGdVn5KuNa-YI-83" value="Order report" style="rounded=1;whiteSpace=wrap;html=1;fillColor=none;arcSize=5;strokeColor=#000000;" parent="1" vertex="1">
          <mxGeometry x="890" y="188" width="60" height="50" as="geometry" />
        </mxCell>
        <mxCell id="P04yTUuKGdVn5KuNa-YI-94" value="Client" style="rounded=1;whiteSpace=wrap;html=1;fillColor=none;arcSize=5;strokeColor=#000000;" parent="1" vertex="1">
          <mxGeometry x="1150" y="140" width="60" height="50" as="geometry" />
        </mxCell>
        <mxCell id="P04yTUuKGdVn5KuNa-YI-97" value="Manager" style="rounded=1;whiteSpace=wrap;html=1;fillColor=none;arcSize=5;strokeColor=#000000;" parent="1" vertex="1">
          <mxGeometry x="1150" y="65" width="60" height="50" as="geometry" />
        </mxCell>
        <mxCell id="P04yTUuKGdVn5KuNa-YI-100" value="Worker" style="rounded=1;whiteSpace=wrap;html=1;fillColor=none;arcSize=5;strokeColor=#000000;" parent="1" vertex="1">
          <mxGeometry x="1150" y="215" width="60" height="50" as="geometry" />
        </mxCell>
        <mxCell id="P04yTUuKGdVn5KuNa-YI-107" value="" style="edgeStyle=orthogonalEdgeStyle;rounded=0;orthogonalLoop=1;jettySize=auto;html=1;" parent="1" source="P04yTUuKGdVn5KuNa-YI-101" target="P04yTUuKGdVn5KuNa-YI-106" edge="1">
          <mxGeometry relative="1" as="geometry" />
        </mxCell>
        <mxCell id="P04yTUuKGdVn5KuNa-YI-108" value="has_one" style="edgeLabel;html=1;align=center;verticalAlign=middle;resizable=0;points=[];" parent="P04yTUuKGdVn5KuNa-YI-107" vertex="1" connectable="0">
          <mxGeometry x="-0.2" y="-3" relative="1" as="geometry">
            <mxPoint as="offset" />
          </mxGeometry>
        </mxCell>
        <mxCell id="P04yTUuKGdVn5KuNa-YI-110" value="" style="edgeStyle=orthogonalEdgeStyle;rounded=0;orthogonalLoop=1;jettySize=auto;html=1;" parent="1" source="P04yTUuKGdVn5KuNa-YI-101" target="P04yTUuKGdVn5KuNa-YI-104" edge="1">
          <mxGeometry relative="1" as="geometry" />
        </mxCell>
        <mxCell id="P04yTUuKGdVn5KuNa-YI-111" value="has_many" style="edgeLabel;html=1;align=center;verticalAlign=middle;resizable=0;points=[];" parent="P04yTUuKGdVn5KuNa-YI-110" vertex="1" connectable="0">
          <mxGeometry x="-0.1338" y="-2" relative="1" as="geometry">
            <mxPoint as="offset" />
          </mxGeometry>
        </mxCell>
        <mxCell id="P04yTUuKGdVn5KuNa-YI-112" style="edgeStyle=orthogonalEdgeStyle;rounded=0;orthogonalLoop=1;jettySize=auto;html=1;exitX=0.5;exitY=1;exitDx=0;exitDy=0;entryX=0.5;entryY=0;entryDx=0;entryDy=0;" parent="1" source="P04yTUuKGdVn5KuNa-YI-101" target="P04yTUuKGdVn5KuNa-YI-105" edge="1">
          <mxGeometry relative="1" as="geometry">
            <mxPoint x="1365.0000000000005" y="385" as="targetPoint" />
            <Array as="points">
              <mxPoint x="1284" y="285" />
            </Array>
          </mxGeometry>
        </mxCell>
        <mxCell id="P04yTUuKGdVn5KuNa-YI-113" value="has_many" style="edgeLabel;html=1;align=center;verticalAlign=middle;resizable=0;points=[];" parent="P04yTUuKGdVn5KuNa-YI-112" vertex="1" connectable="0">
          <mxGeometry x="0.0448" relative="1" as="geometry">
            <mxPoint as="offset" />
          </mxGeometry>
        </mxCell>
        <mxCell id="P04yTUuKGdVn5KuNa-YI-101" value="Account" style="rounded=1;whiteSpace=wrap;html=1;fillColor=none;arcSize=5;strokeColor=#000000;" parent="1" vertex="1">
          <mxGeometry x="1254.5" y="205" width="60" height="50" as="geometry" />
        </mxCell>
        <mxCell id="P04yTUuKGdVn5KuNa-YI-115" value="" style="edgeStyle=orthogonalEdgeStyle;rounded=0;orthogonalLoop=1;jettySize=auto;html=1;" parent="1" source="P04yTUuKGdVn5KuNa-YI-104" target="P04yTUuKGdVn5KuNa-YI-114" edge="1">
          <mxGeometry relative="1" as="geometry" />
        </mxCell>
        <mxCell id="P04yTUuKGdVn5KuNa-YI-116" value="has_one" style="edgeLabel;html=1;align=center;verticalAlign=middle;resizable=0;points=[];" parent="P04yTUuKGdVn5KuNa-YI-115" vertex="1" connectable="0">
          <mxGeometry x="-0.1119" y="-2" relative="1" as="geometry">
            <mxPoint as="offset" />
          </mxGeometry>
        </mxCell>
        <mxCell id="P04yTUuKGdVn5KuNa-YI-104" value="Transaction" style="rounded=1;whiteSpace=wrap;html=1;fillColor=none;arcSize=5;strokeColor=#000000;" parent="1" vertex="1">
          <mxGeometry x="1245" y="90" width="80" height="50" as="geometry" />
        </mxCell>
        <mxCell id="P04yTUuKGdVn5KuNa-YI-105" value="Invoice" style="rounded=1;whiteSpace=wrap;html=1;fillColor=none;arcSize=5;strokeColor=#000000;" parent="1" vertex="1">
          <mxGeometry x="1245" y="325" width="80" height="50" as="geometry" />
        </mxCell>
        <mxCell id="P04yTUuKGdVn5KuNa-YI-106" value="Account settings" style="rounded=1;whiteSpace=wrap;html=1;fillColor=none;arcSize=5;strokeColor=#000000;" parent="1" vertex="1">
          <mxGeometry x="1400" y="205" width="60" height="50" as="geometry" />
        </mxCell>
        <mxCell id="P04yTUuKGdVn5KuNa-YI-109" value="status&lt;br&gt;timestamp" style="text;html=1;strokeColor=none;fillColor=none;align=center;verticalAlign=middle;whiteSpace=wrap;rounded=0;" parent="1" vertex="1">
          <mxGeometry x="1245" y="58" width="60" height="30" as="geometry" />
        </mxCell>
        <mxCell id="P04yTUuKGdVn5KuNa-YI-114" value="payment" style="rounded=1;whiteSpace=wrap;html=1;fillColor=none;arcSize=5;strokeColor=#000000;" parent="1" vertex="1">
          <mxGeometry x="1400" y="90" width="80" height="50" as="geometry" />
        </mxCell>
        <mxCell id="P04yTUuKGdVn5KuNa-YI-119" value="balance" style="text;html=1;strokeColor=none;fillColor=none;align=center;verticalAlign=middle;whiteSpace=wrap;rounded=0;" parent="1" vertex="1">
          <mxGeometry x="1245" y="180" width="60" height="30" as="geometry" />
        </mxCell>
        <mxCell id="P04yTUuKGdVn5KuNa-YI-120" value="destination/bank" style="text;html=1;strokeColor=none;fillColor=none;align=center;verticalAlign=middle;whiteSpace=wrap;rounded=0;" parent="1" vertex="1">
          <mxGeometry x="1410" y="175" width="60" height="30" as="geometry" />
        </mxCell>
        <mxCell id="P04yTUuKGdVn5KuNa-YI-130" value="" style="edgeStyle=orthogonalEdgeStyle;rounded=0;orthogonalLoop=1;jettySize=auto;html=1;exitX=0;exitY=0.5;exitDx=0;exitDy=0;" parent="1" source="P04yTUuKGdVn5KuNa-YI-122" target="P04yTUuKGdVn5KuNa-YI-121" edge="1">
          <mxGeometry relative="1" as="geometry" />
        </mxCell>
        <mxCell id="P04yTUuKGdVn5KuNa-YI-131" value="has_one" style="edgeLabel;html=1;align=center;verticalAlign=middle;resizable=0;points=[];" parent="P04yTUuKGdVn5KuNa-YI-130" vertex="1" connectable="0">
          <mxGeometry x="-0.2884" relative="1" as="geometry">
            <mxPoint as="offset" />
          </mxGeometry>
        </mxCell>
        <mxCell id="P04yTUuKGdVn5KuNa-YI-121" value="Order information" style="rounded=1;whiteSpace=wrap;html=1;fillColor=none;arcSize=5;strokeColor=#000000;" parent="1" vertex="1">
          <mxGeometry x="224" y="620" width="80" height="70" as="geometry" />
        </mxCell>
        <mxCell id="P04yTUuKGdVn5KuNa-YI-126" value="" style="edgeStyle=orthogonalEdgeStyle;rounded=0;orthogonalLoop=1;jettySize=auto;html=1;startArrow=classic;startFill=1;" parent="1" source="P04yTUuKGdVn5KuNa-YI-125" target="P04yTUuKGdVn5KuNa-YI-122" edge="1">
          <mxGeometry relative="1" as="geometry" />
        </mxCell>
        <mxCell id="P04yTUuKGdVn5KuNa-YI-128" value="has_many" style="edgeLabel;html=1;align=center;verticalAlign=middle;resizable=0;points=[];" parent="P04yTUuKGdVn5KuNa-YI-126" vertex="1" connectable="0">
          <mxGeometry x="-0.176" relative="1" as="geometry">
            <mxPoint as="offset" />
          </mxGeometry>
        </mxCell>
        <mxCell id="P04yTUuKGdVn5KuNa-YI-132" value="" style="edgeStyle=orthogonalEdgeStyle;rounded=0;orthogonalLoop=1;jettySize=auto;html=1;" parent="1" source="P04yTUuKGdVn5KuNa-YI-122" target="P04yTUuKGdVn5KuNa-YI-123" edge="1">
          <mxGeometry relative="1" as="geometry" />
        </mxCell>
        <mxCell id="P04yTUuKGdVn5KuNa-YI-133" value="has_one" style="edgeLabel;html=1;align=center;verticalAlign=middle;resizable=0;points=[];" parent="P04yTUuKGdVn5KuNa-YI-132" vertex="1" connectable="0">
          <mxGeometry x="0.08" y="-1" relative="1" as="geometry">
            <mxPoint as="offset" />
          </mxGeometry>
        </mxCell>
        <mxCell id="P04yTUuKGdVn5KuNa-YI-122" value="Bet" style="rounded=1;whiteSpace=wrap;html=1;fillColor=none;arcSize=5;strokeColor=#000000;" parent="1" vertex="1">
          <mxGeometry x="394.5" y="630" width="60" height="50" as="geometry" />
        </mxCell>
        <mxCell id="P04yTUuKGdVn5KuNa-YI-137" value="" style="edgeStyle=orthogonalEdgeStyle;rounded=0;orthogonalLoop=1;jettySize=auto;html=1;" parent="1" source="P04yTUuKGdVn5KuNa-YI-123" target="P04yTUuKGdVn5KuNa-YI-136" edge="1">
          <mxGeometry relative="1" as="geometry" />
        </mxCell>
        <mxCell id="P04yTUuKGdVn5KuNa-YI-138" value="has_many" style="edgeLabel;html=1;align=center;verticalAlign=middle;resizable=0;points=[];" parent="P04yTUuKGdVn5KuNa-YI-137" vertex="1" connectable="0">
          <mxGeometry x="-0.1879" y="-1" relative="1" as="geometry">
            <mxPoint as="offset" />
          </mxGeometry>
        </mxCell>
        <mxCell id="P04yTUuKGdVn5KuNa-YI-123" value="Winnings" style="rounded=1;whiteSpace=wrap;html=1;fillColor=none;arcSize=5;strokeColor=#000000;" parent="1" vertex="1">
          <mxGeometry x="394.5" y="730" width="60" height="50" as="geometry" />
        </mxCell>
        <mxCell id="P04yTUuKGdVn5KuNa-YI-124" value="Senior manager" style="rounded=1;whiteSpace=wrap;html=1;fillColor=none;arcSize=5;strokeColor=#000000;" parent="1" vertex="1">
          <mxGeometry x="224" y="710" width="60" height="60" as="geometry" />
        </mxCell>
        <mxCell id="P04yTUuKGdVn5KuNa-YI-125" value="Manager" style="rounded=1;whiteSpace=wrap;html=1;fillColor=none;arcSize=5;strokeColor=#000000;" parent="1" vertex="1">
          <mxGeometry x="394" y="510" width="60" height="50" as="geometry" />
        </mxCell>
        <mxCell id="P04yTUuKGdVn5KuNa-YI-129" value="amount&lt;br&gt;condition" style="text;html=1;strokeColor=none;fillColor=none;align=center;verticalAlign=middle;whiteSpace=wrap;rounded=0;" parent="1" vertex="1">
          <mxGeometry x="454.5" y="630" width="60" height="30" as="geometry" />
        </mxCell>
        <mxCell id="P04yTUuKGdVn5KuNa-YI-136" value="Winner" style="rounded=1;whiteSpace=wrap;html=1;fillColor=none;arcSize=5;strokeColor=#000000;" parent="1" vertex="1">
          <mxGeometry x="544" y="730" width="60" height="50" as="geometry" />
        </mxCell>
        <mxCell id="P04yTUuKGdVn5KuNa-YI-139" value="status&lt;br&gt;deadline" style="text;html=1;strokeColor=none;fillColor=none;align=center;verticalAlign=middle;whiteSpace=wrap;rounded=0;" parent="1" vertex="1">
          <mxGeometry x="224" y="590" width="60" height="30" as="geometry" />
        </mxCell>
        <mxCell id="P04yTUuKGdVn5KuNa-YI-176" value="" style="edgeStyle=orthogonalEdgeStyle;rounded=0;orthogonalLoop=1;jettySize=auto;html=1;" parent="1" source="P04yTUuKGdVn5KuNa-YI-140" target="P04yTUuKGdVn5KuNa-YI-173" edge="1">
          <mxGeometry relative="1" as="geometry" />
        </mxCell>
        <mxCell id="P04yTUuKGdVn5KuNa-YI-140" value="Client information" style="rounded=1;whiteSpace=wrap;html=1;fillColor=none;arcSize=5;strokeColor=#000000;" parent="1" vertex="1">
          <mxGeometry x="1645.25" y="56" width="70.5" height="59" as="geometry" />
        </mxCell>
        <mxCell id="P04yTUuKGdVn5KuNa-YI-141" value="Employee (warehouse)" style="rounded=1;whiteSpace=wrap;html=1;fillColor=none;arcSize=5;strokeColor=#000000;" parent="1" vertex="1">
          <mxGeometry x="1859.5" y="355" width="70.5" height="59" as="geometry" />
        </mxCell>
        <mxCell id="P04yTUuKGdVn5KuNa-YI-148" value="" style="edgeStyle=orthogonalEdgeStyle;rounded=0;orthogonalLoop=1;jettySize=auto;html=1;" parent="1" source="P04yTUuKGdVn5KuNa-YI-144" target="P04yTUuKGdVn5KuNa-YI-147" edge="1">
          <mxGeometry relative="1" as="geometry" />
        </mxCell>
        <mxCell id="P04yTUuKGdVn5KuNa-YI-149" value="has_one" style="edgeLabel;html=1;align=center;verticalAlign=middle;resizable=0;points=[];" parent="P04yTUuKGdVn5KuNa-YI-148" vertex="1" connectable="0">
          <mxGeometry x="0.0031" relative="1" as="geometry">
            <mxPoint as="offset" />
          </mxGeometry>
        </mxCell>
        <mxCell id="P04yTUuKGdVn5KuNa-YI-152" style="edgeStyle=orthogonalEdgeStyle;rounded=0;orthogonalLoop=1;jettySize=auto;html=1;exitX=0.25;exitY=1;exitDx=0;exitDy=0;entryX=0.25;entryY=0;entryDx=0;entryDy=0;" parent="1" source="P04yTUuKGdVn5KuNa-YI-144" target="P04yTUuKGdVn5KuNa-YI-151" edge="1">
          <mxGeometry relative="1" as="geometry" />
        </mxCell>
        <mxCell id="P04yTUuKGdVn5KuNa-YI-153" value="has_many" style="edgeLabel;html=1;align=center;verticalAlign=middle;resizable=0;points=[];" parent="P04yTUuKGdVn5KuNa-YI-152" vertex="1" connectable="0">
          <mxGeometry x="0.1534" y="-1" relative="1" as="geometry">
            <mxPoint as="offset" />
          </mxGeometry>
        </mxCell>
        <mxCell id="P04yTUuKGdVn5KuNa-YI-155" value="" style="edgeStyle=orthogonalEdgeStyle;rounded=0;orthogonalLoop=1;jettySize=auto;html=1;" parent="1" source="P04yTUuKGdVn5KuNa-YI-144" target="P04yTUuKGdVn5KuNa-YI-154" edge="1">
          <mxGeometry relative="1" as="geometry" />
        </mxCell>
        <mxCell id="P04yTUuKGdVn5KuNa-YI-156" value="has_many" style="edgeLabel;html=1;align=center;verticalAlign=middle;resizable=0;points=[];" parent="P04yTUuKGdVn5KuNa-YI-155" vertex="1" connectable="0">
          <mxGeometry x="-0.2857" y="1" relative="1" as="geometry">
            <mxPoint as="offset" />
          </mxGeometry>
        </mxCell>
        <mxCell id="P04yTUuKGdVn5KuNa-YI-168" value="" style="edgeStyle=orthogonalEdgeStyle;rounded=0;orthogonalLoop=1;jettySize=auto;html=1;" parent="1" source="P04yTUuKGdVn5KuNa-YI-144" target="P04yTUuKGdVn5KuNa-YI-167" edge="1">
          <mxGeometry relative="1" as="geometry" />
        </mxCell>
        <mxCell id="P04yTUuKGdVn5KuNa-YI-169" value="has_one" style="edgeLabel;html=1;align=center;verticalAlign=middle;resizable=0;points=[];" parent="P04yTUuKGdVn5KuNa-YI-168" vertex="1" connectable="0">
          <mxGeometry x="-0.1273" y="-1" relative="1" as="geometry">
            <mxPoint as="offset" />
          </mxGeometry>
        </mxCell>
        <mxCell id="P04yTUuKGdVn5KuNa-YI-174" value="" style="edgeStyle=orthogonalEdgeStyle;rounded=0;orthogonalLoop=1;jettySize=auto;html=1;entryX=0.5;entryY=1;entryDx=0;entryDy=0;" parent="1" source="P04yTUuKGdVn5KuNa-YI-144" target="P04yTUuKGdVn5KuNa-YI-173" edge="1">
          <mxGeometry relative="1" as="geometry">
            <mxPoint x="1785.75" y="165.00000000000023" as="targetPoint" />
          </mxGeometry>
        </mxCell>
        <mxCell id="P04yTUuKGdVn5KuNa-YI-175" value="has_one" style="edgeLabel;html=1;align=center;verticalAlign=middle;resizable=0;points=[];" parent="P04yTUuKGdVn5KuNa-YI-174" vertex="1" connectable="0">
          <mxGeometry x="0.0524" y="2" relative="1" as="geometry">
            <mxPoint as="offset" />
          </mxGeometry>
        </mxCell>
        <mxCell id="P04yTUuKGdVn5KuNa-YI-144" value="Order" style="rounded=1;whiteSpace=wrap;html=1;fillColor=none;arcSize=5;strokeColor=#000000;" parent="1" vertex="1">
          <mxGeometry x="1750.5" y="225" width="70.5" height="59" as="geometry" />
        </mxCell>
        <mxCell id="P04yTUuKGdVn5KuNa-YI-145" style="edgeStyle=orthogonalEdgeStyle;rounded=0;orthogonalLoop=1;jettySize=auto;html=1;entryX=1.01;entryY=0.685;entryDx=0;entryDy=0;entryPerimeter=0;" parent="1" source="P04yTUuKGdVn5KuNa-YI-141" target="P04yTUuKGdVn5KuNa-YI-144" edge="1">
          <mxGeometry relative="1" as="geometry" />
        </mxCell>
        <mxCell id="P04yTUuKGdVn5KuNa-YI-146" value="has_many" style="edgeLabel;html=1;align=center;verticalAlign=middle;resizable=0;points=[];" parent="P04yTUuKGdVn5KuNa-YI-145" vertex="1" connectable="0">
          <mxGeometry x="0.1168" y="1" relative="1" as="geometry">
            <mxPoint as="offset" />
          </mxGeometry>
        </mxCell>
        <mxCell id="P04yTUuKGdVn5KuNa-YI-147" value="Order status" style="rounded=1;whiteSpace=wrap;html=1;fillColor=none;arcSize=5;strokeColor=#000000;" parent="1" vertex="1">
          <mxGeometry x="1574.75" y="225" width="70.5" height="59" as="geometry" />
        </mxCell>
        <mxCell id="P04yTUuKGdVn5KuNa-YI-150" value="registered&lt;br&gt;assembled&lt;br&gt;waiting_for_cookie&lt;br&gt;delivered" style="text;html=1;strokeColor=none;fillColor=none;align=center;verticalAlign=middle;whiteSpace=wrap;rounded=0;" parent="1" vertex="1">
          <mxGeometry x="1567.37" y="165" width="85.25" height="60" as="geometry" />
        </mxCell>
        <mxCell id="P04yTUuKGdVn5KuNa-YI-151" value="Order&#39;s audit log" style="rounded=1;whiteSpace=wrap;html=1;fillColor=none;arcSize=5;strokeColor=#000000;" parent="1" vertex="1">
          <mxGeometry x="1574.75" y="336" width="55.25" height="59" as="geometry" />
        </mxCell>
        <mxCell id="P04yTUuKGdVn5KuNa-YI-158" value="" style="edgeStyle=orthogonalEdgeStyle;rounded=0;orthogonalLoop=1;jettySize=auto;html=1;" parent="1" source="P04yTUuKGdVn5KuNa-YI-154" target="P04yTUuKGdVn5KuNa-YI-157" edge="1">
          <mxGeometry relative="1" as="geometry" />
        </mxCell>
        <mxCell id="P04yTUuKGdVn5KuNa-YI-159" value="has_one" style="edgeLabel;html=1;align=center;verticalAlign=middle;resizable=0;points=[];" parent="P04yTUuKGdVn5KuNa-YI-158" vertex="1" connectable="0">
          <mxGeometry x="-0.1013" y="2" relative="1" as="geometry">
            <mxPoint as="offset" />
          </mxGeometry>
        </mxCell>
        <mxCell id="P04yTUuKGdVn5KuNa-YI-154" value="Item" style="rounded=1;whiteSpace=wrap;html=1;fillColor=none;arcSize=5;strokeColor=#000000;" parent="1" vertex="1">
          <mxGeometry x="1750.5" y="336" width="70.5" height="59" as="geometry" />
        </mxCell>
        <mxCell id="P04yTUuKGdVn5KuNa-YI-161" value="" style="edgeStyle=orthogonalEdgeStyle;rounded=0;orthogonalLoop=1;jettySize=auto;html=1;" parent="1" source="P04yTUuKGdVn5KuNa-YI-157" target="P04yTUuKGdVn5KuNa-YI-160" edge="1">
          <mxGeometry relative="1" as="geometry" />
        </mxCell>
        <mxCell id="P04yTUuKGdVn5KuNa-YI-162" value="has_many" style="edgeLabel;html=1;align=center;verticalAlign=middle;resizable=0;points=[];" parent="P04yTUuKGdVn5KuNa-YI-161" vertex="1" connectable="0">
          <mxGeometry x="-0.1878" y="1" relative="1" as="geometry">
            <mxPoint as="offset" />
          </mxGeometry>
        </mxCell>
        <mxCell id="P04yTUuKGdVn5KuNa-YI-157" value="Consumable" style="rounded=1;whiteSpace=wrap;html=1;fillColor=none;arcSize=5;strokeColor=#000000;" parent="1" vertex="1">
          <mxGeometry x="1750.5" y="450" width="70.5" height="59" as="geometry" />
        </mxCell>
        <mxCell id="P04yTUuKGdVn5KuNa-YI-160" value="Consumable warehouse position" style="rounded=1;whiteSpace=wrap;html=1;fillColor=none;arcSize=5;strokeColor=#000000;" parent="1" vertex="1">
          <mxGeometry x="1944.75" y="450" width="70.5" height="59" as="geometry" />
        </mxCell>
        <mxCell id="P04yTUuKGdVn5KuNa-YI-163" value="Delivery address" style="rounded=1;whiteSpace=wrap;html=1;fillColor=none;arcSize=5;strokeColor=#000000;" parent="1" vertex="1">
          <mxGeometry x="1944.75" y="56" width="70.5" height="59" as="geometry" />
        </mxCell>
        <mxCell id="P04yTUuKGdVn5KuNa-YI-166" value="Worker information" style="rounded=1;whiteSpace=wrap;html=1;fillColor=none;arcSize=5;strokeColor=#000000;" parent="1" vertex="1">
          <mxGeometry x="1860" y="56" width="70.5" height="59" as="geometry" />
        </mxCell>
        <mxCell id="P04yTUuKGdVn5KuNa-YI-171" value="" style="edgeStyle=orthogonalEdgeStyle;rounded=0;orthogonalLoop=1;jettySize=auto;html=1;entryX=0.5;entryY=1;entryDx=0;entryDy=0;" parent="1" source="P04yTUuKGdVn5KuNa-YI-167" target="P04yTUuKGdVn5KuNa-YI-163" edge="1">
          <mxGeometry relative="1" as="geometry">
            <mxPoint x="1980.0476190476193" y="165.00000000000023" as="targetPoint" />
          </mxGeometry>
        </mxCell>
        <mxCell id="P04yTUuKGdVn5KuNa-YI-172" value="has_one" style="edgeLabel;html=1;align=center;verticalAlign=middle;resizable=0;points=[];" parent="P04yTUuKGdVn5KuNa-YI-171" vertex="1" connectable="0">
          <mxGeometry x="-0.0247" relative="1" as="geometry">
            <mxPoint as="offset" />
          </mxGeometry>
        </mxCell>
        <mxCell id="P04yTUuKGdVn5KuNa-YI-177" style="edgeStyle=orthogonalEdgeStyle;rounded=0;orthogonalLoop=1;jettySize=auto;html=1;exitX=0.5;exitY=1;exitDx=0;exitDy=0;" parent="1" source="P04yTUuKGdVn5KuNa-YI-167" target="P04yTUuKGdVn5KuNa-YI-160" edge="1">
          <mxGeometry relative="1" as="geometry" />
        </mxCell>
        <mxCell id="P04yTUuKGdVn5KuNa-YI-178" value="has_many" style="edgeLabel;html=1;align=center;verticalAlign=middle;resizable=0;points=[];" parent="P04yTUuKGdVn5KuNa-YI-177" vertex="1" connectable="0">
          <mxGeometry x="-0.4229" y="-1" relative="1" as="geometry">
            <mxPoint as="offset" />
          </mxGeometry>
        </mxCell>
        <mxCell id="P04yTUuKGdVn5KuNa-YI-167" value="Delivery box" style="rounded=1;whiteSpace=wrap;html=1;fillColor=none;arcSize=5;strokeColor=#000000;" parent="1" vertex="1">
          <mxGeometry x="1950" y="225" width="60" height="61" as="geometry" />
        </mxCell>
        <mxCell id="P04yTUuKGdVn5KuNa-YI-173" value="Cookie" style="rounded=1;whiteSpace=wrap;html=1;fillColor=none;arcSize=5;strokeColor=#000000;" parent="1" vertex="1">
          <mxGeometry x="1750.5" y="56" width="70.5" height="59" as="geometry" />
        </mxCell>
        <mxCell id="P04yTUuKGdVn5KuNa-YI-179" value="Test" style="rounded=1;whiteSpace=wrap;html=1;fillColor=none;arcSize=5;strokeColor=#000000;" parent="1" vertex="1">
          <mxGeometry x="1390" y="489" width="60" height="50" as="geometry" />
        </mxCell>
        <mxCell id="P04yTUuKGdVn5KuNa-YI-184" value="" style="edgeStyle=orthogonalEdgeStyle;rounded=0;orthogonalLoop=1;jettySize=auto;html=1;" parent="1" source="P04yTUuKGdVn5KuNa-YI-182" target="P04yTUuKGdVn5KuNa-YI-179" edge="1">
          <mxGeometry relative="1" as="geometry" />
        </mxCell>
        <mxCell id="P04yTUuKGdVn5KuNa-YI-185" value="has_many" style="edgeLabel;html=1;align=center;verticalAlign=middle;resizable=0;points=[];" parent="P04yTUuKGdVn5KuNa-YI-184" vertex="1" connectable="0">
          <mxGeometry x="0.0094" y="-1" relative="1" as="geometry">
            <mxPoint as="offset" />
          </mxGeometry>
        </mxCell>
        <mxCell id="P04yTUuKGdVn5KuNa-YI-182" value="Test Suite" style="rounded=1;whiteSpace=wrap;html=1;fillColor=none;arcSize=5;strokeColor=#000000;" parent="1" vertex="1">
          <mxGeometry x="1250" y="489" width="60" height="50" as="geometry" />
        </mxCell>
        <mxCell id="P04yTUuKGdVn5KuNa-YI-192" style="edgeStyle=orthogonalEdgeStyle;rounded=0;orthogonalLoop=1;jettySize=auto;html=1;exitX=0;exitY=0.5;exitDx=0;exitDy=0;entryX=1;entryY=0.5;entryDx=0;entryDy=0;" parent="1" source="P04yTUuKGdVn5KuNa-YI-183" target="P04yTUuKGdVn5KuNa-YI-189" edge="1">
          <mxGeometry relative="1" as="geometry" />
        </mxCell>
        <mxCell id="P04yTUuKGdVn5KuNa-YI-193" value="has_many" style="edgeLabel;html=1;align=center;verticalAlign=middle;resizable=0;points=[];" parent="P04yTUuKGdVn5KuNa-YI-192" vertex="1" connectable="0">
          <mxGeometry x="-0.0051" relative="1" as="geometry">
            <mxPoint as="offset" />
          </mxGeometry>
        </mxCell>
        <mxCell id="P04yTUuKGdVn5KuNa-YI-183" value="Manager" style="rounded=1;whiteSpace=wrap;html=1;fillColor=none;arcSize=5;strokeColor=#000000;" parent="1" vertex="1">
          <mxGeometry x="1420" y="614" width="60" height="50" as="geometry" />
        </mxCell>
        <mxCell id="P04yTUuKGdVn5KuNa-YI-187" value="" style="edgeStyle=orthogonalEdgeStyle;rounded=0;orthogonalLoop=1;jettySize=auto;html=1;exitX=0.25;exitY=0;exitDx=0;exitDy=0;" parent="1" source="P04yTUuKGdVn5KuNa-YI-189" target="P04yTUuKGdVn5KuNa-YI-182" edge="1">
          <mxGeometry relative="1" as="geometry" />
        </mxCell>
        <mxCell id="P04yTUuKGdVn5KuNa-YI-188" value="has_one" style="edgeLabel;html=1;align=center;verticalAlign=middle;resizable=0;points=[];" parent="P04yTUuKGdVn5KuNa-YI-187" vertex="1" connectable="0">
          <mxGeometry x="-0.0667" y="1" relative="1" as="geometry">
            <mxPoint as="offset" />
          </mxGeometry>
        </mxCell>
        <mxCell id="P04yTUuKGdVn5KuNa-YI-190" value="" style="edgeStyle=orthogonalEdgeStyle;rounded=0;orthogonalLoop=1;jettySize=auto;html=1;" parent="1" source="P04yTUuKGdVn5KuNa-YI-186" target="P04yTUuKGdVn5KuNa-YI-189" edge="1">
          <mxGeometry relative="1" as="geometry" />
        </mxCell>
        <mxCell id="P04yTUuKGdVn5KuNa-YI-191" value="has_one" style="edgeLabel;html=1;align=center;verticalAlign=middle;resizable=0;points=[];" parent="P04yTUuKGdVn5KuNa-YI-190" vertex="1" connectable="0">
          <mxGeometry x="-0.1775" y="-2" relative="1" as="geometry">
            <mxPoint as="offset" />
          </mxGeometry>
        </mxCell>
        <mxCell id="P04yTUuKGdVn5KuNa-YI-215" style="edgeStyle=orthogonalEdgeStyle;rounded=0;orthogonalLoop=1;jettySize=auto;html=1;exitX=1;exitY=0.25;exitDx=0;exitDy=0;entryX=0.75;entryY=1;entryDx=0;entryDy=0;dashed=1;dashPattern=12 12;strokeColor=#97D077;strokeWidth=2;" parent="1" source="P04yTUuKGdVn5KuNa-YI-186" target="P04yTUuKGdVn5KuNa-YI-100" edge="1">
          <mxGeometry relative="1" as="geometry" />
        </mxCell>
        <mxCell id="P04yTUuKGdVn5KuNa-YI-186" value="Worker (candidate)" style="rounded=1;whiteSpace=wrap;html=1;fillColor=none;arcSize=5;strokeColor=#000000;" parent="1" vertex="1">
          <mxGeometry x="1114.5" y="609" width="70" height="60" as="geometry" />
        </mxCell>
        <mxCell id="P04yTUuKGdVn5KuNa-YI-189" value="Application form" style="rounded=1;whiteSpace=wrap;html=1;fillColor=none;arcSize=5;strokeColor=#000000;" parent="1" vertex="1">
          <mxGeometry x="1260" y="609" width="70" height="60" as="geometry" />
        </mxCell>
        <mxCell id="P04yTUuKGdVn5KuNa-YI-195" style="edgeStyle=orthogonalEdgeStyle;rounded=0;orthogonalLoop=1;jettySize=auto;html=1;exitX=0.5;exitY=1;exitDx=0;exitDy=0;entryX=0.5;entryY=0;entryDx=0;entryDy=0;" parent="1" source="P04yTUuKGdVn5KuNa-YI-189" target="P04yTUuKGdVn5KuNa-YI-194" edge="1">
          <mxGeometry relative="1" as="geometry" />
        </mxCell>
        <mxCell id="P04yTUuKGdVn5KuNa-YI-196" value="has_many" style="edgeLabel;html=1;align=center;verticalAlign=middle;resizable=0;points=[];" parent="P04yTUuKGdVn5KuNa-YI-195" vertex="1" connectable="0">
          <mxGeometry x="-0.092" y="-1" relative="1" as="geometry">
            <mxPoint as="offset" />
          </mxGeometry>
        </mxCell>
        <mxCell id="P04yTUuKGdVn5KuNa-YI-194" value="Application form&#39;s audit log" style="rounded=1;whiteSpace=wrap;html=1;fillColor=none;arcSize=5;strokeColor=#000000;" parent="1" vertex="1">
          <mxGeometry x="1260" y="729" width="70" height="60" as="geometry" />
        </mxCell>
        <mxCell id="P04yTUuKGdVn5KuNa-YI-197" value="experience" style="text;html=1;strokeColor=none;fillColor=none;align=center;verticalAlign=middle;whiteSpace=wrap;rounded=0;" parent="1" vertex="1">
          <mxGeometry x="1104.25" y="579" width="90.5" height="30" as="geometry" />
        </mxCell>
        <mxCell id="P04yTUuKGdVn5KuNa-YI-198" value="Name" style="rounded=1;whiteSpace=wrap;html=1;fillColor=none;arcSize=5;strokeColor=#97D077;" parent="1" vertex="1">
          <mxGeometry x="21" y="94" width="40" height="30" as="geometry" />
        </mxCell>
        <mxCell id="P04yTUuKGdVn5KuNa-YI-199" value="- Master Data (producer)" style="text;html=1;strokeColor=none;fillColor=none;align=center;verticalAlign=middle;whiteSpace=wrap;rounded=0;" parent="1" vertex="1">
          <mxGeometry x="51" y="45" width="120" height="30" as="geometry" />
        </mxCell>
        <mxCell id="P04yTUuKGdVn5KuNa-YI-200" value="- Read Data (comsumer)" style="text;html=1;strokeColor=none;fillColor=none;align=center;verticalAlign=middle;whiteSpace=wrap;rounded=0;" parent="1" vertex="1">
          <mxGeometry x="51" y="94" width="120" height="30" as="geometry" />
        </mxCell>
        <mxCell id="P04yTUuKGdVn5KuNa-YI-201" value="- Direct communication" style="text;html=1;strokeColor=none;fillColor=none;align=center;verticalAlign=middle;whiteSpace=wrap;rounded=0;" parent="1" vertex="1">
          <mxGeometry x="51" y="142.5" width="120" height="30" as="geometry" />
        </mxCell>
        <mxCell id="P04yTUuKGdVn5KuNa-YI-202" value="- Streaming communication" style="text;html=1;strokeColor=none;fillColor=none;align=center;verticalAlign=middle;whiteSpace=wrap;rounded=0;" parent="1" vertex="1">
          <mxGeometry x="51" y="185" width="120" height="30" as="geometry" />
        </mxCell>
        <mxCell id="P04yTUuKGdVn5KuNa-YI-205" value="" style="endArrow=none;html=1;rounded=0;" parent="1" edge="1">
          <mxGeometry width="50" height="50" relative="1" as="geometry">
            <mxPoint x="537" y="245" as="sourcePoint" />
            <mxPoint x="557" y="145" as="targetPoint" />
            <Array as="points">
              <mxPoint x="527" y="245" />
              <mxPoint x="527" y="145" />
            </Array>
          </mxGeometry>
        </mxCell>
        <mxCell id="P04yTUuKGdVn5KuNa-YI-210" value="" style="endArrow=none;html=1;rounded=0;" parent="1" edge="1">
          <mxGeometry width="50" height="50" relative="1" as="geometry">
            <mxPoint x="257" y="130" as="sourcePoint" />
            <mxPoint x="277" y="94" as="targetPoint" />
            <Array as="points">
              <mxPoint x="247" y="130" />
              <mxPoint x="247" y="94" />
            </Array>
          </mxGeometry>
        </mxCell>
        <mxCell id="P04yTUuKGdVn5KuNa-YI-213" style="edgeStyle=orthogonalEdgeStyle;rounded=0;orthogonalLoop=1;jettySize=auto;html=1;exitX=0.5;exitY=0;exitDx=0;exitDy=0;dashed=1;dashPattern=12 12;strokeColor=#97D077;entryX=0.5;entryY=1;entryDx=0;entryDy=0;strokeWidth=2;" parent="1" source="P04yTUuKGdVn5KuNa-YI-29" target="P04yTUuKGdVn5KuNa-YI-74" edge="1">
          <mxGeometry relative="1" as="geometry">
            <mxPoint x="179" y="985" as="sourcePoint" />
            <mxPoint x="230" y="330" as="targetPoint" />
            <Array as="points">
              <mxPoint x="810" y="455" />
              <mxPoint x="810" y="390" />
              <mxPoint x="765" y="390" />
            </Array>
          </mxGeometry>
        </mxCell>
        <mxCell id="P04yTUuKGdVn5KuNa-YI-214" value="" style="endArrow=none;html=1;rounded=0;" parent="1" edge="1">
          <mxGeometry width="50" height="50" relative="1" as="geometry">
            <mxPoint x="730" y="200" as="sourcePoint" />
            <mxPoint x="750" y="132.5" as="targetPoint" />
            <Array as="points">
              <mxPoint x="720" y="200" />
              <mxPoint x="720" y="132.5" />
            </Array>
          </mxGeometry>
        </mxCell>
        <mxCell id="P04yTUuKGdVn5KuNa-YI-216" value="" style="endArrow=none;html=1;rounded=0;" parent="1" edge="1">
          <mxGeometry width="50" height="50" relative="1" as="geometry">
            <mxPoint x="1114" y="619" as="sourcePoint" />
            <mxPoint x="1134" y="583" as="targetPoint" />
            <Array as="points">
              <mxPoint x="1104" y="619" />
              <mxPoint x="1104" y="583" />
            </Array>
          </mxGeometry>
        </mxCell>
        <mxCell id="P04yTUuKGdVn5KuNa-YI-219" value="" style="endArrow=none;html=1;rounded=0;" parent="1" edge="1">
          <mxGeometry width="50" height="50" relative="1" as="geometry">
            <mxPoint x="1244.25" y="111" as="sourcePoint" />
            <mxPoint x="1289.5" y="55" as="targetPoint" />
            <Array as="points">
              <mxPoint x="1234.25" y="111" />
              <mxPoint x="1234.5" y="55" />
            </Array>
          </mxGeometry>
        </mxCell>
        <mxCell id="P04yTUuKGdVn5KuNa-YI-220" value="" style="endArrow=none;html=1;rounded=0;" parent="1" edge="1">
          <mxGeometry width="50" height="50" relative="1" as="geometry">
            <mxPoint x="1400" y="213" as="sourcePoint" />
            <mxPoint x="1449" y="177" as="targetPoint" />
            <Array as="points">
              <mxPoint x="1390" y="213" />
              <mxPoint x="1390" y="177" />
            </Array>
          </mxGeometry>
        </mxCell>
        <mxCell id="P04yTUuKGdVn5KuNa-YI-221" value="" style="endArrow=none;html=1;rounded=0;" parent="1" edge="1">
          <mxGeometry width="50" height="50" relative="1" as="geometry">
            <mxPoint x="1254.5" y="221.5" as="sourcePoint" />
            <mxPoint x="1303.5" y="185.5" as="targetPoint" />
            <Array as="points">
              <mxPoint x="1244.5" y="221.5" />
              <mxPoint x="1244.5" y="185.5" />
            </Array>
          </mxGeometry>
        </mxCell>
        <mxCell id="P04yTUuKGdVn5KuNa-YI-222" style="edgeStyle=orthogonalEdgeStyle;rounded=0;orthogonalLoop=1;jettySize=auto;html=1;entryX=0.75;entryY=0;entryDx=0;entryDy=0;dashed=1;dashPattern=12 12;strokeColor=#97D077;strokeWidth=2;" parent="1" target="P04yTUuKGdVn5KuNa-YI-40" edge="1">
          <mxGeometry relative="1" as="geometry">
            <mxPoint x="850" y="493" as="sourcePoint" />
            <Array as="points">
              <mxPoint x="880" y="493" />
              <mxPoint x="880" y="680" />
              <mxPoint x="856" y="680" />
            </Array>
          </mxGeometry>
        </mxCell>
        <mxCell id="P04yTUuKGdVn5KuNa-YI-223" value="" style="endArrow=none;html=1;rounded=0;" parent="1" edge="1">
          <mxGeometry width="50" height="50" relative="1" as="geometry">
            <mxPoint x="1575" y="235" as="sourcePoint" />
            <mxPoint x="1630" y="155" as="targetPoint" />
            <Array as="points">
              <mxPoint x="1560" y="235" />
              <mxPoint x="1560" y="155" />
            </Array>
          </mxGeometry>
        </mxCell>
        <mxCell id="P04yTUuKGdVn5KuNa-YI-228" value="" style="endArrow=none;html=1;rounded=0;" parent="1" edge="1">
          <mxGeometry width="50" height="50" relative="1" as="geometry">
            <mxPoint x="464.5" y="670" as="sourcePoint" />
            <mxPoint x="504.5" y="620" as="targetPoint" />
            <Array as="points">
              <mxPoint x="454.5" y="670" />
              <mxPoint x="454.5" y="620" />
            </Array>
          </mxGeometry>
        </mxCell>
      </root>
    </mxGraphModel>
  </diagram>
  <diagram name="V2-29-11-23" id="qM_b2uYWnTNnxL4BQKC1">
    <mxGraphModel dx="1234" dy="1198" grid="1" gridSize="10" guides="1" tooltips="1" connect="1" arrows="1" fold="1" page="1" pageScale="1" pageWidth="1169" pageHeight="827" math="0" shadow="0">
      <root>
        <mxCell id="69XmpAPmQokOdaL-FCBD-0" />
        <mxCell id="69XmpAPmQokOdaL-FCBD-1" parent="69XmpAPmQokOdaL-FCBD-0" />
        <mxCell id="69XmpAPmQokOdaL-FCBD-2" value="" style="rounded=1;whiteSpace=wrap;html=1;fillColor=none;arcSize=5;strokeColor=#000000;strokeWidth=2;" vertex="1" parent="69XmpAPmQokOdaL-FCBD-1">
          <mxGeometry x="1080" y="429" width="420" height="380" as="geometry" />
        </mxCell>
        <mxCell id="69XmpAPmQokOdaL-FCBD-3" value="" style="rounded=1;whiteSpace=wrap;html=1;fillColor=none;arcSize=5;strokeColor=#000000;strokeWidth=2;" vertex="1" parent="69XmpAPmQokOdaL-FCBD-1">
          <mxGeometry x="710" y="15" width="400" height="360" as="geometry" />
        </mxCell>
        <mxCell id="69XmpAPmQokOdaL-FCBD-4" value="" style="rounded=1;whiteSpace=wrap;html=1;fillColor=none;arcSize=5;strokeColor=#000000;strokeWidth=2;" vertex="1" parent="69XmpAPmQokOdaL-FCBD-1">
          <mxGeometry x="11" y="15" width="160" height="210" as="geometry" />
        </mxCell>
        <mxCell id="69XmpAPmQokOdaL-FCBD-5" value="" style="rounded=1;whiteSpace=wrap;html=1;fillColor=none;arcSize=5;strokeColor=#000000;strokeWidth=2;" vertex="1" parent="69XmpAPmQokOdaL-FCBD-1">
          <mxGeometry x="187" y="15" width="500" height="425" as="geometry" />
        </mxCell>
        <mxCell id="69XmpAPmQokOdaL-FCBD-6" value="&lt;b&gt;Жизненный цикл заказа&lt;/b&gt;" style="text;html=1;strokeColor=none;fillColor=none;align=center;verticalAlign=middle;whiteSpace=wrap;rounded=1;" vertex="1" parent="69XmpAPmQokOdaL-FCBD-1">
          <mxGeometry x="333" y="30" width="181" height="30" as="geometry" />
        </mxCell>
        <mxCell id="69XmpAPmQokOdaL-FCBD-7" value="" style="rounded=1;whiteSpace=wrap;html=1;fillColor=none;arcSize=5;strokeColor=#000000;strokeWidth=2;" vertex="1" parent="69XmpAPmQokOdaL-FCBD-1">
          <mxGeometry x="762.62" y="405" width="290" height="230" as="geometry" />
        </mxCell>
        <mxCell id="69XmpAPmQokOdaL-FCBD-8" value="&lt;b&gt;Создание и управление заказом&lt;/b&gt;" style="text;html=1;strokeColor=none;fillColor=none;align=center;verticalAlign=middle;whiteSpace=wrap;rounded=1;" vertex="1" parent="69XmpAPmQokOdaL-FCBD-1">
          <mxGeometry x="822.62" y="415" width="181" height="30" as="geometry" />
        </mxCell>
        <mxCell id="69XmpAPmQokOdaL-FCBD-9" value="" style="rounded=1;whiteSpace=wrap;html=1;fillColor=none;arcSize=5;strokeColor=#000000;strokeWidth=2;" vertex="1" parent="69XmpAPmQokOdaL-FCBD-1">
          <mxGeometry x="204" y="470" width="420" height="330" as="geometry" />
        </mxCell>
        <mxCell id="69XmpAPmQokOdaL-FCBD-10" value="&lt;b&gt;Система ставок&lt;/b&gt;" style="text;html=1;strokeColor=none;fillColor=none;align=center;verticalAlign=middle;whiteSpace=wrap;rounded=1;" vertex="1" parent="69XmpAPmQokOdaL-FCBD-1">
          <mxGeometry x="322.5" y="475" width="181" height="30" as="geometry" />
        </mxCell>
        <mxCell id="69XmpAPmQokOdaL-FCBD-11" value="" style="rounded=1;whiteSpace=wrap;html=1;fillColor=none;arcSize=5;strokeColor=#000000;strokeWidth=2;" vertex="1" parent="69XmpAPmQokOdaL-FCBD-1">
          <mxGeometry x="1540" y="15" width="500" height="510" as="geometry" />
        </mxCell>
        <mxCell id="69XmpAPmQokOdaL-FCBD-12" value="&lt;b&gt;Инвентаризация и склад&lt;/b&gt;" style="text;html=1;strokeColor=none;fillColor=none;align=center;verticalAlign=middle;whiteSpace=wrap;rounded=1;" vertex="1" parent="69XmpAPmQokOdaL-FCBD-1">
          <mxGeometry x="1715.75" y="26" width="181" height="30" as="geometry" />
        </mxCell>
        <mxCell id="69XmpAPmQokOdaL-FCBD-13" value="&lt;b&gt;Отдел контроля качества&lt;/b&gt;" style="text;html=1;strokeColor=none;fillColor=none;align=center;verticalAlign=middle;whiteSpace=wrap;rounded=1;" vertex="1" parent="69XmpAPmQokOdaL-FCBD-1">
          <mxGeometry x="829.5" y="25" width="181" height="30" as="geometry" />
        </mxCell>
        <mxCell id="69XmpAPmQokOdaL-FCBD-14" value="" style="rounded=1;whiteSpace=wrap;html=1;fillColor=none;arcSize=5;strokeColor=#000000;strokeWidth=2;" vertex="1" parent="69XmpAPmQokOdaL-FCBD-1">
          <mxGeometry x="795" y="691" width="230" height="99" as="geometry" />
        </mxCell>
        <mxCell id="69XmpAPmQokOdaL-FCBD-15" value="&lt;b&gt;Система мэтчинга&lt;/b&gt;" style="text;html=1;strokeColor=none;fillColor=none;align=center;verticalAlign=middle;whiteSpace=wrap;rounded=1;" vertex="1" parent="69XmpAPmQokOdaL-FCBD-1">
          <mxGeometry x="819.5" y="691" width="181" height="30" as="geometry" />
        </mxCell>
        <mxCell id="69XmpAPmQokOdaL-FCBD-16" value="" style="rounded=1;whiteSpace=wrap;html=1;fillColor=none;arcSize=5;strokeColor=#000000;strokeWidth=2;" vertex="1" parent="69XmpAPmQokOdaL-FCBD-1">
          <mxGeometry x="1130" y="15" width="370" height="380" as="geometry" />
        </mxCell>
        <mxCell id="69XmpAPmQokOdaL-FCBD-17" value="&lt;b&gt;Выплаты денежных средств&lt;/b&gt;" style="text;html=1;strokeColor=none;fillColor=none;align=center;verticalAlign=middle;whiteSpace=wrap;rounded=1;" vertex="1" parent="69XmpAPmQokOdaL-FCBD-1">
          <mxGeometry x="1224.5" y="25" width="181" height="30" as="geometry" />
        </mxCell>
        <mxCell id="69XmpAPmQokOdaL-FCBD-18" value="&lt;b&gt;Регистрация и тестирование пользователя&lt;/b&gt;" style="text;html=1;strokeColor=none;fillColor=none;align=center;verticalAlign=middle;whiteSpace=wrap;rounded=1;" vertex="1" parent="69XmpAPmQokOdaL-FCBD-1">
          <mxGeometry x="1195" y="449" width="181" height="30" as="geometry" />
        </mxCell>
        <mxCell id="69XmpAPmQokOdaL-FCBD-19" value="&lt;b&gt;Легенда&lt;/b&gt;" style="text;html=1;strokeColor=none;fillColor=none;align=center;verticalAlign=middle;whiteSpace=wrap;rounded=1;" vertex="1" parent="69XmpAPmQokOdaL-FCBD-1">
          <mxGeometry x="31" y="15" width="100" height="30" as="geometry" />
        </mxCell>
        <mxCell id="69XmpAPmQokOdaL-FCBD-20" value="" style="endArrow=classic;html=1;rounded=0;" edge="1" parent="69XmpAPmQokOdaL-FCBD-1">
          <mxGeometry width="50" height="50" relative="1" as="geometry">
            <mxPoint x="21" y="157" as="sourcePoint" />
            <mxPoint x="71" y="157" as="targetPoint" />
          </mxGeometry>
        </mxCell>
        <mxCell id="69XmpAPmQokOdaL-FCBD-21" value="" style="endArrow=classic;html=1;rounded=0;dashed=1;dashPattern=8 8;strokeColor=#97D077;" edge="1" parent="69XmpAPmQokOdaL-FCBD-1">
          <mxGeometry width="50" height="50" relative="1" as="geometry">
            <mxPoint x="21" y="195" as="sourcePoint" />
            <mxPoint x="71" y="195" as="targetPoint" />
          </mxGeometry>
        </mxCell>
        <mxCell id="69XmpAPmQokOdaL-FCBD-22" style="edgeStyle=orthogonalEdgeStyle;rounded=0;orthogonalLoop=1;jettySize=auto;html=1;entryX=0.5;entryY=1;entryDx=0;entryDy=0;" edge="1" parent="69XmpAPmQokOdaL-FCBD-1" source="69XmpAPmQokOdaL-FCBD-24" target="69XmpAPmQokOdaL-FCBD-28">
          <mxGeometry relative="1" as="geometry" />
        </mxCell>
        <mxCell id="69XmpAPmQokOdaL-FCBD-23" value="has_many" style="edgeLabel;html=1;align=center;verticalAlign=middle;resizable=0;points=[];" vertex="1" connectable="0" parent="69XmpAPmQokOdaL-FCBD-22">
          <mxGeometry x="-0.1287" y="-1" relative="1" as="geometry">
            <mxPoint as="offset" />
          </mxGeometry>
        </mxCell>
        <mxCell id="69XmpAPmQokOdaL-FCBD-24" value="Client" style="rounded=1;whiteSpace=wrap;html=1;fillColor=none;arcSize=5;strokeColor=#000000;" vertex="1" parent="69XmpAPmQokOdaL-FCBD-1">
          <mxGeometry x="786.12" y="575" width="60" height="50" as="geometry" />
        </mxCell>
        <mxCell id="69XmpAPmQokOdaL-FCBD-25" value="Name" style="rounded=1;whiteSpace=wrap;html=1;fillColor=none;arcSize=5;strokeColor=#000000;" vertex="1" parent="69XmpAPmQokOdaL-FCBD-1">
          <mxGeometry x="21" y="45" width="40" height="30" as="geometry" />
        </mxCell>
        <mxCell id="69XmpAPmQokOdaL-FCBD-26" style="edgeStyle=orthogonalEdgeStyle;rounded=0;orthogonalLoop=1;jettySize=auto;html=1;exitX=0;exitY=0.5;exitDx=0;exitDy=0;dashed=1;dashPattern=12 12;strokeColor=#97D077;strokeWidth=2;" edge="1" parent="69XmpAPmQokOdaL-FCBD-1" source="69XmpAPmQokOdaL-FCBD-28" target="69XmpAPmQokOdaL-FCBD-41">
          <mxGeometry relative="1" as="geometry">
            <Array as="points">
              <mxPoint x="510" y="480" />
              <mxPoint x="510" y="270" />
            </Array>
          </mxGeometry>
        </mxCell>
        <mxCell id="69XmpAPmQokOdaL-FCBD-27" style="edgeStyle=orthogonalEdgeStyle;rounded=0;orthogonalLoop=1;jettySize=auto;html=1;exitX=0;exitY=0.75;exitDx=0;exitDy=0;entryX=1;entryY=0.25;entryDx=0;entryDy=0;dashed=1;dashPattern=12 12;strokeColor=#97D077;movable=1;resizable=1;rotatable=1;deletable=1;editable=1;locked=0;connectable=1;strokeWidth=2;" edge="1" parent="69XmpAPmQokOdaL-FCBD-1" source="69XmpAPmQokOdaL-FCBD-28" target="69XmpAPmQokOdaL-FCBD-98">
          <mxGeometry relative="1" as="geometry">
            <Array as="points">
              <mxPoint x="786" y="500" />
              <mxPoint x="720" y="500" />
              <mxPoint x="720" y="610" />
              <mxPoint x="330" y="610" />
              <mxPoint x="330" y="638" />
            </Array>
          </mxGeometry>
        </mxCell>
        <mxCell id="69XmpAPmQokOdaL-FCBD-28" value="Order" style="rounded=1;whiteSpace=wrap;html=1;fillColor=none;arcSize=5;strokeColor=#000000;" vertex="1" parent="69XmpAPmQokOdaL-FCBD-1">
          <mxGeometry x="786.12" y="455" width="60" height="50" as="geometry" />
        </mxCell>
        <mxCell id="69XmpAPmQokOdaL-FCBD-29" value="" style="edgeStyle=orthogonalEdgeStyle;rounded=0;orthogonalLoop=1;jettySize=auto;html=1;" edge="1" parent="69XmpAPmQokOdaL-FCBD-1" source="69XmpAPmQokOdaL-FCBD-28" target="69XmpAPmQokOdaL-FCBD-31">
          <mxGeometry relative="1" as="geometry" />
        </mxCell>
        <mxCell id="69XmpAPmQokOdaL-FCBD-30" value="has_one" style="edgeLabel;html=1;align=center;verticalAlign=middle;resizable=0;points=[];" vertex="1" connectable="0" parent="69XmpAPmQokOdaL-FCBD-29">
          <mxGeometry x="-0.0303" y="-2" relative="1" as="geometry">
            <mxPoint as="offset" />
          </mxGeometry>
        </mxCell>
        <mxCell id="69XmpAPmQokOdaL-FCBD-31" value="Order type" style="rounded=1;whiteSpace=wrap;html=1;fillColor=none;arcSize=5;strokeColor=#000000;" vertex="1" parent="69XmpAPmQokOdaL-FCBD-1">
          <mxGeometry x="932.62" y="455" width="85" height="50" as="geometry" />
        </mxCell>
        <mxCell id="69XmpAPmQokOdaL-FCBD-32" value="Manager" style="rounded=1;whiteSpace=wrap;html=1;fillColor=none;arcSize=5;strokeColor=#000000;" vertex="1" parent="69XmpAPmQokOdaL-FCBD-1">
          <mxGeometry x="932.62" y="565" width="60" height="50" as="geometry" />
        </mxCell>
        <mxCell id="69XmpAPmQokOdaL-FCBD-33" value="" style="edgeStyle=orthogonalEdgeStyle;rounded=0;orthogonalLoop=1;jettySize=auto;html=1;" edge="1" parent="69XmpAPmQokOdaL-FCBD-1" source="69XmpAPmQokOdaL-FCBD-35" target="69XmpAPmQokOdaL-FCBD-36">
          <mxGeometry relative="1" as="geometry" />
        </mxCell>
        <mxCell id="69XmpAPmQokOdaL-FCBD-34" value="has_one" style="edgeLabel;html=1;align=center;verticalAlign=middle;resizable=0;points=[];" vertex="1" connectable="0" parent="69XmpAPmQokOdaL-FCBD-33">
          <mxGeometry x="-0.0888" relative="1" as="geometry">
            <mxPoint as="offset" />
          </mxGeometry>
        </mxCell>
        <mxCell id="69XmpAPmQokOdaL-FCBD-35" value="Order" style="rounded=1;whiteSpace=wrap;html=1;fillColor=none;arcSize=5;strokeColor=#000000;" vertex="1" parent="69XmpAPmQokOdaL-FCBD-1">
          <mxGeometry x="811" y="721" width="60" height="50" as="geometry" />
        </mxCell>
        <mxCell id="69XmpAPmQokOdaL-FCBD-36" value="Worker" style="rounded=1;whiteSpace=wrap;html=1;fillColor=none;arcSize=5;strokeColor=#000000;" vertex="1" parent="69XmpAPmQokOdaL-FCBD-1">
          <mxGeometry x="950" y="721" width="60" height="50" as="geometry" />
        </mxCell>
        <mxCell id="69XmpAPmQokOdaL-FCBD-37" value="" style="edgeStyle=orthogonalEdgeStyle;rounded=0;orthogonalLoop=1;jettySize=auto;html=1;" edge="1" parent="69XmpAPmQokOdaL-FCBD-1" source="69XmpAPmQokOdaL-FCBD-41" target="69XmpAPmQokOdaL-FCBD-55">
          <mxGeometry relative="1" as="geometry" />
        </mxCell>
        <mxCell id="69XmpAPmQokOdaL-FCBD-38" value="has_many" style="edgeLabel;html=1;align=center;verticalAlign=middle;resizable=0;points=[];" vertex="1" connectable="0" parent="69XmpAPmQokOdaL-FCBD-37">
          <mxGeometry x="-0.2061" y="-1" relative="1" as="geometry">
            <mxPoint as="offset" />
          </mxGeometry>
        </mxCell>
        <mxCell id="69XmpAPmQokOdaL-FCBD-39" style="edgeStyle=orthogonalEdgeStyle;rounded=0;orthogonalLoop=1;jettySize=auto;html=1;exitX=0;exitY=0.75;exitDx=0;exitDy=0;entryX=0.5;entryY=0;entryDx=0;entryDy=0;" edge="1" parent="69XmpAPmQokOdaL-FCBD-1" source="69XmpAPmQokOdaL-FCBD-41" target="69XmpAPmQokOdaL-FCBD-66">
          <mxGeometry relative="1" as="geometry" />
        </mxCell>
        <mxCell id="69XmpAPmQokOdaL-FCBD-40" value="has_many" style="edgeLabel;html=1;align=center;verticalAlign=middle;resizable=0;points=[];" vertex="1" connectable="0" parent="69XmpAPmQokOdaL-FCBD-39">
          <mxGeometry x="0.0927" relative="1" as="geometry">
            <mxPoint as="offset" />
          </mxGeometry>
        </mxCell>
        <mxCell id="69XmpAPmQokOdaL-FCBD-41" value="Order" style="rounded=1;whiteSpace=wrap;html=1;fillColor=none;arcSize=5;strokeColor=#000000;" vertex="1" parent="69XmpAPmQokOdaL-FCBD-1">
          <mxGeometry x="384" y="235" width="60" height="50" as="geometry" />
        </mxCell>
        <mxCell id="69XmpAPmQokOdaL-FCBD-42" value="" style="edgeStyle=orthogonalEdgeStyle;rounded=0;orthogonalLoop=1;jettySize=auto;html=1;" edge="1" parent="69XmpAPmQokOdaL-FCBD-1" source="69XmpAPmQokOdaL-FCBD-46" target="69XmpAPmQokOdaL-FCBD-41">
          <mxGeometry relative="1" as="geometry" />
        </mxCell>
        <mxCell id="69XmpAPmQokOdaL-FCBD-43" value="has_many" style="edgeLabel;html=1;align=center;verticalAlign=middle;resizable=0;points=[];" vertex="1" connectable="0" parent="69XmpAPmQokOdaL-FCBD-42">
          <mxGeometry x="-0.0759" relative="1" as="geometry">
            <mxPoint as="offset" />
          </mxGeometry>
        </mxCell>
        <mxCell id="69XmpAPmQokOdaL-FCBD-44" value="" style="edgeStyle=orthogonalEdgeStyle;rounded=0;orthogonalLoop=1;jettySize=auto;html=1;" edge="1" parent="69XmpAPmQokOdaL-FCBD-1" source="69XmpAPmQokOdaL-FCBD-46" target="69XmpAPmQokOdaL-FCBD-54">
          <mxGeometry relative="1" as="geometry" />
        </mxCell>
        <mxCell id="69XmpAPmQokOdaL-FCBD-45" value="has_one" style="edgeLabel;html=1;align=center;verticalAlign=middle;resizable=0;points=[];" vertex="1" connectable="0" parent="69XmpAPmQokOdaL-FCBD-44">
          <mxGeometry x="-0.1961" y="-1" relative="1" as="geometry">
            <mxPoint as="offset" />
          </mxGeometry>
        </mxCell>
        <mxCell id="69XmpAPmQokOdaL-FCBD-46" value="Client" style="rounded=1;whiteSpace=wrap;html=1;fillColor=none;arcSize=5;strokeColor=#000000;" vertex="1" parent="69XmpAPmQokOdaL-FCBD-1">
          <mxGeometry x="384" y="70" width="60" height="50" as="geometry" />
        </mxCell>
        <mxCell id="69XmpAPmQokOdaL-FCBD-47" style="edgeStyle=orthogonalEdgeStyle;rounded=0;orthogonalLoop=1;jettySize=auto;html=1;" edge="1" parent="69XmpAPmQokOdaL-FCBD-1" source="69XmpAPmQokOdaL-FCBD-49" target="69XmpAPmQokOdaL-FCBD-41">
          <mxGeometry relative="1" as="geometry">
            <Array as="points" />
          </mxGeometry>
        </mxCell>
        <mxCell id="69XmpAPmQokOdaL-FCBD-48" value="has_many" style="edgeLabel;html=1;align=center;verticalAlign=middle;resizable=0;points=[];" vertex="1" connectable="0" parent="69XmpAPmQokOdaL-FCBD-47">
          <mxGeometry x="-0.4663" y="2" relative="1" as="geometry">
            <mxPoint as="offset" />
          </mxGeometry>
        </mxCell>
        <mxCell id="69XmpAPmQokOdaL-FCBD-49" value="Worker" style="rounded=1;whiteSpace=wrap;html=1;fillColor=none;arcSize=5;strokeColor=#000000;" vertex="1" parent="69XmpAPmQokOdaL-FCBD-1">
          <mxGeometry x="214" y="235" width="60" height="50" as="geometry" />
        </mxCell>
        <mxCell id="69XmpAPmQokOdaL-FCBD-50" value="" style="edgeStyle=orthogonalEdgeStyle;rounded=0;orthogonalLoop=1;jettySize=auto;html=1;" edge="1" parent="69XmpAPmQokOdaL-FCBD-1" source="69XmpAPmQokOdaL-FCBD-52" target="69XmpAPmQokOdaL-FCBD-41">
          <mxGeometry relative="1" as="geometry" />
        </mxCell>
        <mxCell id="69XmpAPmQokOdaL-FCBD-51" value="has_one" style="edgeLabel;html=1;align=center;verticalAlign=middle;resizable=0;points=[];" vertex="1" connectable="0" parent="69XmpAPmQokOdaL-FCBD-50">
          <mxGeometry x="0.0577" y="-1" relative="1" as="geometry">
            <mxPoint as="offset" />
          </mxGeometry>
        </mxCell>
        <mxCell id="69XmpAPmQokOdaL-FCBD-52" value="Order status" style="rounded=1;whiteSpace=wrap;html=1;fillColor=none;arcSize=5;strokeColor=#000000;" vertex="1" parent="69XmpAPmQokOdaL-FCBD-1">
          <mxGeometry x="537" y="235" width="60" height="50" as="geometry" />
        </mxCell>
        <mxCell id="69XmpAPmQokOdaL-FCBD-53" value="created&lt;br&gt;waiting_for_consumables&lt;br&gt;in_progress&lt;br&gt;cancelled&lt;br&gt;completed" style="text;html=1;strokeColor=none;fillColor=none;align=center;verticalAlign=middle;whiteSpace=wrap;rounded=0;" vertex="1" parent="69XmpAPmQokOdaL-FCBD-1">
          <mxGeometry x="510" y="155" width="180" height="80" as="geometry" />
        </mxCell>
        <mxCell id="69XmpAPmQokOdaL-FCBD-54" value="Client information" style="rounded=1;whiteSpace=wrap;html=1;fillColor=none;arcSize=5;strokeColor=#97D077;" vertex="1" parent="69XmpAPmQokOdaL-FCBD-1">
          <mxGeometry x="537" y="70" width="70" height="55" as="geometry" />
        </mxCell>
        <mxCell id="69XmpAPmQokOdaL-FCBD-55" value="Consumable" style="rounded=1;whiteSpace=wrap;html=1;fillColor=none;arcSize=5;strokeColor=#000000;" vertex="1" parent="69XmpAPmQokOdaL-FCBD-1">
          <mxGeometry x="372.5" y="345" width="83" height="50" as="geometry" />
        </mxCell>
        <mxCell id="69XmpAPmQokOdaL-FCBD-56" value="Order information" style="rounded=1;whiteSpace=wrap;html=1;fillColor=none;arcSize=5;strokeColor=#97D077;" vertex="1" parent="69XmpAPmQokOdaL-FCBD-1">
          <mxGeometry x="257" y="120" width="70" height="55" as="geometry" />
        </mxCell>
        <mxCell id="69XmpAPmQokOdaL-FCBD-57" value="deadline" style="text;html=1;strokeColor=none;fillColor=none;align=center;verticalAlign=middle;whiteSpace=wrap;rounded=0;" vertex="1" parent="69XmpAPmQokOdaL-FCBD-1">
          <mxGeometry x="255" y="95" width="63" height="25" as="geometry" />
        </mxCell>
        <mxCell id="69XmpAPmQokOdaL-FCBD-58" value="Worker information" style="rounded=1;whiteSpace=wrap;html=1;fillColor=none;arcSize=5;strokeColor=#97D077;" vertex="1" parent="69XmpAPmQokOdaL-FCBD-1">
          <mxGeometry x="214" y="345" width="73" height="60" as="geometry" />
        </mxCell>
        <mxCell id="69XmpAPmQokOdaL-FCBD-59" value="" style="edgeStyle=orthogonalEdgeStyle;rounded=0;orthogonalLoop=1;jettySize=auto;html=1;" edge="1" parent="69XmpAPmQokOdaL-FCBD-1" source="69XmpAPmQokOdaL-FCBD-61" target="69XmpAPmQokOdaL-FCBD-76">
          <mxGeometry relative="1" as="geometry" />
        </mxCell>
        <mxCell id="69XmpAPmQokOdaL-FCBD-60" value="has_many" style="edgeLabel;html=1;align=center;verticalAlign=middle;resizable=0;points=[];" vertex="1" connectable="0" parent="69XmpAPmQokOdaL-FCBD-59">
          <mxGeometry x="-0.1026" y="-3" relative="1" as="geometry">
            <mxPoint as="offset" />
          </mxGeometry>
        </mxCell>
        <mxCell id="69XmpAPmQokOdaL-FCBD-61" value="Manager" style="rounded=1;whiteSpace=wrap;html=1;fillColor=none;arcSize=5;strokeColor=#000000;" vertex="1" parent="69XmpAPmQokOdaL-FCBD-1">
          <mxGeometry x="890" y="58" width="60" height="50" as="geometry" />
        </mxCell>
        <mxCell id="69XmpAPmQokOdaL-FCBD-62" value="" style="edgeStyle=orthogonalEdgeStyle;rounded=0;orthogonalLoop=1;jettySize=auto;html=1;" edge="1" parent="69XmpAPmQokOdaL-FCBD-1" source="69XmpAPmQokOdaL-FCBD-64" target="69XmpAPmQokOdaL-FCBD-76">
          <mxGeometry relative="1" as="geometry" />
        </mxCell>
        <mxCell id="69XmpAPmQokOdaL-FCBD-63" value="has_one" style="edgeLabel;html=1;align=center;verticalAlign=middle;resizable=0;points=[];" vertex="1" connectable="0" parent="69XmpAPmQokOdaL-FCBD-62">
          <mxGeometry x="-0.2015" relative="1" as="geometry">
            <mxPoint as="offset" />
          </mxGeometry>
        </mxCell>
        <mxCell id="69XmpAPmQokOdaL-FCBD-64" value="Order information" style="rounded=1;whiteSpace=wrap;html=1;fillColor=none;arcSize=5;strokeColor=#97D077;" vertex="1" parent="69XmpAPmQokOdaL-FCBD-1">
          <mxGeometry x="730" y="185.5" width="70" height="55" as="geometry" />
        </mxCell>
        <mxCell id="69XmpAPmQokOdaL-FCBD-65" value="deadline&lt;br&gt;status&lt;br&gt;consumables" style="text;html=1;strokeColor=none;fillColor=none;align=center;verticalAlign=middle;whiteSpace=wrap;rounded=0;" vertex="1" parent="69XmpAPmQokOdaL-FCBD-1">
          <mxGeometry x="730" y="134" width="63" height="51" as="geometry" />
        </mxCell>
        <mxCell id="69XmpAPmQokOdaL-FCBD-66" value="Order&#39;s audit log" style="rounded=1;whiteSpace=wrap;html=1;fillColor=none;arcSize=5;strokeColor=#000000;" vertex="1" parent="69XmpAPmQokOdaL-FCBD-1">
          <mxGeometry x="307" y="365" width="60" height="50" as="geometry" />
        </mxCell>
        <mxCell id="69XmpAPmQokOdaL-FCBD-67" style="edgeStyle=orthogonalEdgeStyle;rounded=0;orthogonalLoop=1;jettySize=auto;html=1;exitX=0.75;exitY=0;exitDx=0;exitDy=0;entryX=0.25;entryY=1;entryDx=0;entryDy=0;" edge="1" parent="69XmpAPmQokOdaL-FCBD-1" source="69XmpAPmQokOdaL-FCBD-69" target="69XmpAPmQokOdaL-FCBD-76">
          <mxGeometry relative="1" as="geometry" />
        </mxCell>
        <mxCell id="69XmpAPmQokOdaL-FCBD-68" value="has_one" style="edgeLabel;html=1;align=center;verticalAlign=middle;resizable=0;points=[];" vertex="1" connectable="0" parent="69XmpAPmQokOdaL-FCBD-67">
          <mxGeometry x="-0.0563" relative="1" as="geometry">
            <mxPoint as="offset" />
          </mxGeometry>
        </mxCell>
        <mxCell id="69XmpAPmQokOdaL-FCBD-69" value="Order&#39;s audit log" style="rounded=1;whiteSpace=wrap;html=1;fillColor=none;arcSize=5;strokeColor=#97D077;" vertex="1" parent="69XmpAPmQokOdaL-FCBD-1">
          <mxGeometry x="793" y="295" width="60" height="50" as="geometry" />
        </mxCell>
        <mxCell id="69XmpAPmQokOdaL-FCBD-70" value="" style="edgeStyle=orthogonalEdgeStyle;rounded=0;orthogonalLoop=1;jettySize=auto;html=1;" edge="1" parent="69XmpAPmQokOdaL-FCBD-1" source="69XmpAPmQokOdaL-FCBD-72" target="69XmpAPmQokOdaL-FCBD-76">
          <mxGeometry relative="1" as="geometry" />
        </mxCell>
        <mxCell id="69XmpAPmQokOdaL-FCBD-71" value="has_one" style="edgeLabel;html=1;align=center;verticalAlign=middle;resizable=0;points=[];" vertex="1" connectable="0" parent="69XmpAPmQokOdaL-FCBD-70">
          <mxGeometry x="0.0911" y="-2" relative="1" as="geometry">
            <mxPoint as="offset" />
          </mxGeometry>
        </mxCell>
        <mxCell id="69XmpAPmQokOdaL-FCBD-72" value="Client information" style="rounded=1;whiteSpace=wrap;html=1;fillColor=none;arcSize=5;strokeColor=#97D077;" vertex="1" parent="69XmpAPmQokOdaL-FCBD-1">
          <mxGeometry x="1020" y="185.5" width="70" height="55" as="geometry" />
        </mxCell>
        <mxCell id="69XmpAPmQokOdaL-FCBD-73" value="Worker information" style="rounded=1;whiteSpace=wrap;html=1;fillColor=none;arcSize=5;strokeColor=#97D077;" vertex="1" parent="69XmpAPmQokOdaL-FCBD-1">
          <mxGeometry x="970" y="295" width="73" height="60" as="geometry" />
        </mxCell>
        <mxCell id="69XmpAPmQokOdaL-FCBD-74" style="edgeStyle=orthogonalEdgeStyle;rounded=0;orthogonalLoop=1;jettySize=auto;html=1;exitX=0.5;exitY=0;exitDx=0;exitDy=0;entryX=0.75;entryY=1;entryDx=0;entryDy=0;" edge="1" parent="69XmpAPmQokOdaL-FCBD-1" source="69XmpAPmQokOdaL-FCBD-73" target="69XmpAPmQokOdaL-FCBD-76">
          <mxGeometry relative="1" as="geometry" />
        </mxCell>
        <mxCell id="69XmpAPmQokOdaL-FCBD-75" value="has_one" style="edgeLabel;html=1;align=center;verticalAlign=middle;resizable=0;points=[];" vertex="1" connectable="0" parent="69XmpAPmQokOdaL-FCBD-74">
          <mxGeometry x="-0.1311" y="3" relative="1" as="geometry">
            <mxPoint as="offset" />
          </mxGeometry>
        </mxCell>
        <mxCell id="69XmpAPmQokOdaL-FCBD-76" value="Order report" style="rounded=1;whiteSpace=wrap;html=1;fillColor=none;arcSize=5;strokeColor=#000000;" vertex="1" parent="69XmpAPmQokOdaL-FCBD-1">
          <mxGeometry x="890" y="188" width="60" height="50" as="geometry" />
        </mxCell>
        <mxCell id="69XmpAPmQokOdaL-FCBD-77" value="Client" style="rounded=1;whiteSpace=wrap;html=1;fillColor=none;arcSize=5;strokeColor=#000000;" vertex="1" parent="69XmpAPmQokOdaL-FCBD-1">
          <mxGeometry x="1150" y="140" width="60" height="50" as="geometry" />
        </mxCell>
        <mxCell id="69XmpAPmQokOdaL-FCBD-78" value="Manager" style="rounded=1;whiteSpace=wrap;html=1;fillColor=none;arcSize=5;strokeColor=#000000;" vertex="1" parent="69XmpAPmQokOdaL-FCBD-1">
          <mxGeometry x="1150" y="65" width="60" height="50" as="geometry" />
        </mxCell>
        <mxCell id="69XmpAPmQokOdaL-FCBD-79" value="Worker" style="rounded=1;whiteSpace=wrap;html=1;fillColor=none;arcSize=5;strokeColor=#000000;" vertex="1" parent="69XmpAPmQokOdaL-FCBD-1">
          <mxGeometry x="1150" y="215" width="60" height="50" as="geometry" />
        </mxCell>
        <mxCell id="69XmpAPmQokOdaL-FCBD-80" value="" style="edgeStyle=orthogonalEdgeStyle;rounded=0;orthogonalLoop=1;jettySize=auto;html=1;" edge="1" parent="69XmpAPmQokOdaL-FCBD-1" source="69XmpAPmQokOdaL-FCBD-86" target="69XmpAPmQokOdaL-FCBD-91">
          <mxGeometry relative="1" as="geometry" />
        </mxCell>
        <mxCell id="69XmpAPmQokOdaL-FCBD-81" value="has_one" style="edgeLabel;html=1;align=center;verticalAlign=middle;resizable=0;points=[];" vertex="1" connectable="0" parent="69XmpAPmQokOdaL-FCBD-80">
          <mxGeometry x="-0.2" y="-3" relative="1" as="geometry">
            <mxPoint as="offset" />
          </mxGeometry>
        </mxCell>
        <mxCell id="69XmpAPmQokOdaL-FCBD-82" value="" style="edgeStyle=orthogonalEdgeStyle;rounded=0;orthogonalLoop=1;jettySize=auto;html=1;" edge="1" parent="69XmpAPmQokOdaL-FCBD-1" source="69XmpAPmQokOdaL-FCBD-86" target="69XmpAPmQokOdaL-FCBD-89">
          <mxGeometry relative="1" as="geometry" />
        </mxCell>
        <mxCell id="69XmpAPmQokOdaL-FCBD-83" value="has_many" style="edgeLabel;html=1;align=center;verticalAlign=middle;resizable=0;points=[];" vertex="1" connectable="0" parent="69XmpAPmQokOdaL-FCBD-82">
          <mxGeometry x="-0.1338" y="-2" relative="1" as="geometry">
            <mxPoint as="offset" />
          </mxGeometry>
        </mxCell>
        <mxCell id="69XmpAPmQokOdaL-FCBD-84" style="edgeStyle=orthogonalEdgeStyle;rounded=0;orthogonalLoop=1;jettySize=auto;html=1;exitX=0.5;exitY=1;exitDx=0;exitDy=0;entryX=0.5;entryY=0;entryDx=0;entryDy=0;" edge="1" parent="69XmpAPmQokOdaL-FCBD-1" source="69XmpAPmQokOdaL-FCBD-86" target="69XmpAPmQokOdaL-FCBD-90">
          <mxGeometry relative="1" as="geometry">
            <mxPoint x="1365.0000000000005" y="385" as="targetPoint" />
            <Array as="points">
              <mxPoint x="1284" y="285" />
            </Array>
          </mxGeometry>
        </mxCell>
        <mxCell id="69XmpAPmQokOdaL-FCBD-85" value="has_many" style="edgeLabel;html=1;align=center;verticalAlign=middle;resizable=0;points=[];" vertex="1" connectable="0" parent="69XmpAPmQokOdaL-FCBD-84">
          <mxGeometry x="0.0448" relative="1" as="geometry">
            <mxPoint as="offset" />
          </mxGeometry>
        </mxCell>
        <mxCell id="69XmpAPmQokOdaL-FCBD-86" value="Account" style="rounded=1;whiteSpace=wrap;html=1;fillColor=none;arcSize=5;strokeColor=#000000;" vertex="1" parent="69XmpAPmQokOdaL-FCBD-1">
          <mxGeometry x="1254.5" y="205" width="60" height="50" as="geometry" />
        </mxCell>
        <mxCell id="69XmpAPmQokOdaL-FCBD-87" value="" style="edgeStyle=orthogonalEdgeStyle;rounded=0;orthogonalLoop=1;jettySize=auto;html=1;" edge="1" parent="69XmpAPmQokOdaL-FCBD-1" source="69XmpAPmQokOdaL-FCBD-89" target="69XmpAPmQokOdaL-FCBD-93">
          <mxGeometry relative="1" as="geometry" />
        </mxCell>
        <mxCell id="69XmpAPmQokOdaL-FCBD-88" value="has_one" style="edgeLabel;html=1;align=center;verticalAlign=middle;resizable=0;points=[];" vertex="1" connectable="0" parent="69XmpAPmQokOdaL-FCBD-87">
          <mxGeometry x="-0.1119" y="-2" relative="1" as="geometry">
            <mxPoint as="offset" />
          </mxGeometry>
        </mxCell>
        <mxCell id="69XmpAPmQokOdaL-FCBD-89" value="Transaction" style="rounded=1;whiteSpace=wrap;html=1;fillColor=none;arcSize=5;strokeColor=#000000;" vertex="1" parent="69XmpAPmQokOdaL-FCBD-1">
          <mxGeometry x="1245" y="90" width="80" height="50" as="geometry" />
        </mxCell>
        <mxCell id="69XmpAPmQokOdaL-FCBD-90" value="Invoice" style="rounded=1;whiteSpace=wrap;html=1;fillColor=none;arcSize=5;strokeColor=#000000;" vertex="1" parent="69XmpAPmQokOdaL-FCBD-1">
          <mxGeometry x="1245" y="325" width="80" height="50" as="geometry" />
        </mxCell>
        <mxCell id="69XmpAPmQokOdaL-FCBD-91" value="Account settings" style="rounded=1;whiteSpace=wrap;html=1;fillColor=none;arcSize=5;strokeColor=#000000;" vertex="1" parent="69XmpAPmQokOdaL-FCBD-1">
          <mxGeometry x="1400" y="205" width="60" height="50" as="geometry" />
        </mxCell>
        <mxCell id="69XmpAPmQokOdaL-FCBD-92" value="status&lt;br&gt;timestamp" style="text;html=1;strokeColor=none;fillColor=none;align=center;verticalAlign=middle;whiteSpace=wrap;rounded=0;" vertex="1" parent="69XmpAPmQokOdaL-FCBD-1">
          <mxGeometry x="1245" y="58" width="60" height="30" as="geometry" />
        </mxCell>
        <mxCell id="69XmpAPmQokOdaL-FCBD-93" value="payment" style="rounded=1;whiteSpace=wrap;html=1;fillColor=none;arcSize=5;strokeColor=#000000;" vertex="1" parent="69XmpAPmQokOdaL-FCBD-1">
          <mxGeometry x="1400" y="90" width="80" height="50" as="geometry" />
        </mxCell>
        <mxCell id="69XmpAPmQokOdaL-FCBD-94" value="balance" style="text;html=1;strokeColor=none;fillColor=none;align=center;verticalAlign=middle;whiteSpace=wrap;rounded=0;" vertex="1" parent="69XmpAPmQokOdaL-FCBD-1">
          <mxGeometry x="1245" y="180" width="60" height="30" as="geometry" />
        </mxCell>
        <mxCell id="69XmpAPmQokOdaL-FCBD-95" value="destination/bank" style="text;html=1;strokeColor=none;fillColor=none;align=center;verticalAlign=middle;whiteSpace=wrap;rounded=0;" vertex="1" parent="69XmpAPmQokOdaL-FCBD-1">
          <mxGeometry x="1410" y="175" width="60" height="30" as="geometry" />
        </mxCell>
        <mxCell id="69XmpAPmQokOdaL-FCBD-96" value="" style="edgeStyle=orthogonalEdgeStyle;rounded=0;orthogonalLoop=1;jettySize=auto;html=1;exitX=0;exitY=0.5;exitDx=0;exitDy=0;" edge="1" parent="69XmpAPmQokOdaL-FCBD-1" source="69XmpAPmQokOdaL-FCBD-103" target="69XmpAPmQokOdaL-FCBD-98">
          <mxGeometry relative="1" as="geometry" />
        </mxCell>
        <mxCell id="69XmpAPmQokOdaL-FCBD-97" value="has_one" style="edgeLabel;html=1;align=center;verticalAlign=middle;resizable=0;points=[];" vertex="1" connectable="0" parent="69XmpAPmQokOdaL-FCBD-96">
          <mxGeometry x="-0.2884" relative="1" as="geometry">
            <mxPoint as="offset" />
          </mxGeometry>
        </mxCell>
        <mxCell id="69XmpAPmQokOdaL-FCBD-98" value="Order information" style="rounded=1;whiteSpace=wrap;html=1;fillColor=none;arcSize=5;strokeColor=#000000;" vertex="1" parent="69XmpAPmQokOdaL-FCBD-1">
          <mxGeometry x="224" y="620" width="80" height="70" as="geometry" />
        </mxCell>
        <mxCell id="69XmpAPmQokOdaL-FCBD-99" value="" style="edgeStyle=orthogonalEdgeStyle;rounded=0;orthogonalLoop=1;jettySize=auto;html=1;startArrow=classic;startFill=1;" edge="1" parent="69XmpAPmQokOdaL-FCBD-1" source="69XmpAPmQokOdaL-FCBD-108" target="69XmpAPmQokOdaL-FCBD-103">
          <mxGeometry relative="1" as="geometry" />
        </mxCell>
        <mxCell id="69XmpAPmQokOdaL-FCBD-100" value="has_many" style="edgeLabel;html=1;align=center;verticalAlign=middle;resizable=0;points=[];" vertex="1" connectable="0" parent="69XmpAPmQokOdaL-FCBD-99">
          <mxGeometry x="-0.176" relative="1" as="geometry">
            <mxPoint as="offset" />
          </mxGeometry>
        </mxCell>
        <mxCell id="69XmpAPmQokOdaL-FCBD-101" value="" style="edgeStyle=orthogonalEdgeStyle;rounded=0;orthogonalLoop=1;jettySize=auto;html=1;" edge="1" parent="69XmpAPmQokOdaL-FCBD-1" source="69XmpAPmQokOdaL-FCBD-103" target="69XmpAPmQokOdaL-FCBD-106">
          <mxGeometry relative="1" as="geometry" />
        </mxCell>
        <mxCell id="69XmpAPmQokOdaL-FCBD-102" value="has_one" style="edgeLabel;html=1;align=center;verticalAlign=middle;resizable=0;points=[];" vertex="1" connectable="0" parent="69XmpAPmQokOdaL-FCBD-101">
          <mxGeometry x="0.08" y="-1" relative="1" as="geometry">
            <mxPoint as="offset" />
          </mxGeometry>
        </mxCell>
        <mxCell id="69XmpAPmQokOdaL-FCBD-103" value="Bet" style="rounded=1;whiteSpace=wrap;html=1;fillColor=none;arcSize=5;strokeColor=#000000;" vertex="1" parent="69XmpAPmQokOdaL-FCBD-1">
          <mxGeometry x="394.5" y="630" width="60" height="50" as="geometry" />
        </mxCell>
        <mxCell id="69XmpAPmQokOdaL-FCBD-104" value="" style="edgeStyle=orthogonalEdgeStyle;rounded=0;orthogonalLoop=1;jettySize=auto;html=1;" edge="1" parent="69XmpAPmQokOdaL-FCBD-1" source="69XmpAPmQokOdaL-FCBD-106" target="69XmpAPmQokOdaL-FCBD-110">
          <mxGeometry relative="1" as="geometry" />
        </mxCell>
        <mxCell id="69XmpAPmQokOdaL-FCBD-105" value="has_many" style="edgeLabel;html=1;align=center;verticalAlign=middle;resizable=0;points=[];" vertex="1" connectable="0" parent="69XmpAPmQokOdaL-FCBD-104">
          <mxGeometry x="-0.1879" y="-1" relative="1" as="geometry">
            <mxPoint as="offset" />
          </mxGeometry>
        </mxCell>
        <mxCell id="69XmpAPmQokOdaL-FCBD-106" value="Winnings" style="rounded=1;whiteSpace=wrap;html=1;fillColor=none;arcSize=5;strokeColor=#000000;" vertex="1" parent="69XmpAPmQokOdaL-FCBD-1">
          <mxGeometry x="394.5" y="730" width="60" height="50" as="geometry" />
        </mxCell>
        <mxCell id="69XmpAPmQokOdaL-FCBD-107" value="Senior manager" style="rounded=1;whiteSpace=wrap;html=1;fillColor=none;arcSize=5;strokeColor=#000000;" vertex="1" parent="69XmpAPmQokOdaL-FCBD-1">
          <mxGeometry x="224" y="710" width="60" height="60" as="geometry" />
        </mxCell>
        <mxCell id="69XmpAPmQokOdaL-FCBD-108" value="Manager" style="rounded=1;whiteSpace=wrap;html=1;fillColor=none;arcSize=5;strokeColor=#000000;" vertex="1" parent="69XmpAPmQokOdaL-FCBD-1">
          <mxGeometry x="394" y="510" width="60" height="50" as="geometry" />
        </mxCell>
        <mxCell id="69XmpAPmQokOdaL-FCBD-109" value="amount&lt;br&gt;condition" style="text;html=1;strokeColor=none;fillColor=none;align=center;verticalAlign=middle;whiteSpace=wrap;rounded=0;" vertex="1" parent="69XmpAPmQokOdaL-FCBD-1">
          <mxGeometry x="454.5" y="630" width="60" height="30" as="geometry" />
        </mxCell>
        <mxCell id="69XmpAPmQokOdaL-FCBD-110" value="Winner" style="rounded=1;whiteSpace=wrap;html=1;fillColor=none;arcSize=5;strokeColor=#000000;" vertex="1" parent="69XmpAPmQokOdaL-FCBD-1">
          <mxGeometry x="544" y="730" width="60" height="50" as="geometry" />
        </mxCell>
        <mxCell id="69XmpAPmQokOdaL-FCBD-111" value="status&lt;br&gt;deadline" style="text;html=1;strokeColor=none;fillColor=none;align=center;verticalAlign=middle;whiteSpace=wrap;rounded=0;" vertex="1" parent="69XmpAPmQokOdaL-FCBD-1">
          <mxGeometry x="224" y="590" width="60" height="30" as="geometry" />
        </mxCell>
        <mxCell id="69XmpAPmQokOdaL-FCBD-112" value="" style="edgeStyle=orthogonalEdgeStyle;rounded=0;orthogonalLoop=1;jettySize=auto;html=1;" edge="1" parent="69XmpAPmQokOdaL-FCBD-1" source="69XmpAPmQokOdaL-FCBD-113" target="69XmpAPmQokOdaL-FCBD-145">
          <mxGeometry relative="1" as="geometry" />
        </mxCell>
        <mxCell id="69XmpAPmQokOdaL-FCBD-113" value="Client information" style="rounded=1;whiteSpace=wrap;html=1;fillColor=none;arcSize=5;strokeColor=#000000;" vertex="1" parent="69XmpAPmQokOdaL-FCBD-1">
          <mxGeometry x="1645.25" y="56" width="70.5" height="59" as="geometry" />
        </mxCell>
        <mxCell id="69XmpAPmQokOdaL-FCBD-114" value="Employee (warehouse)" style="rounded=1;whiteSpace=wrap;html=1;fillColor=none;arcSize=5;strokeColor=#000000;" vertex="1" parent="69XmpAPmQokOdaL-FCBD-1">
          <mxGeometry x="1859.5" y="355" width="70.5" height="59" as="geometry" />
        </mxCell>
        <mxCell id="69XmpAPmQokOdaL-FCBD-115" value="" style="edgeStyle=orthogonalEdgeStyle;rounded=0;orthogonalLoop=1;jettySize=auto;html=1;" edge="1" parent="69XmpAPmQokOdaL-FCBD-1" source="69XmpAPmQokOdaL-FCBD-125" target="69XmpAPmQokOdaL-FCBD-128">
          <mxGeometry relative="1" as="geometry" />
        </mxCell>
        <mxCell id="69XmpAPmQokOdaL-FCBD-116" value="has_one" style="edgeLabel;html=1;align=center;verticalAlign=middle;resizable=0;points=[];" vertex="1" connectable="0" parent="69XmpAPmQokOdaL-FCBD-115">
          <mxGeometry x="0.0031" relative="1" as="geometry">
            <mxPoint as="offset" />
          </mxGeometry>
        </mxCell>
        <mxCell id="69XmpAPmQokOdaL-FCBD-117" style="edgeStyle=orthogonalEdgeStyle;rounded=0;orthogonalLoop=1;jettySize=auto;html=1;exitX=0.25;exitY=1;exitDx=0;exitDy=0;entryX=0.25;entryY=0;entryDx=0;entryDy=0;" edge="1" parent="69XmpAPmQokOdaL-FCBD-1" source="69XmpAPmQokOdaL-FCBD-125" target="69XmpAPmQokOdaL-FCBD-130">
          <mxGeometry relative="1" as="geometry" />
        </mxCell>
        <mxCell id="69XmpAPmQokOdaL-FCBD-118" value="has_many" style="edgeLabel;html=1;align=center;verticalAlign=middle;resizable=0;points=[];" vertex="1" connectable="0" parent="69XmpAPmQokOdaL-FCBD-117">
          <mxGeometry x="0.1534" y="-1" relative="1" as="geometry">
            <mxPoint as="offset" />
          </mxGeometry>
        </mxCell>
        <mxCell id="69XmpAPmQokOdaL-FCBD-119" value="" style="edgeStyle=orthogonalEdgeStyle;rounded=0;orthogonalLoop=1;jettySize=auto;html=1;" edge="1" parent="69XmpAPmQokOdaL-FCBD-1" source="69XmpAPmQokOdaL-FCBD-125" target="69XmpAPmQokOdaL-FCBD-133">
          <mxGeometry relative="1" as="geometry" />
        </mxCell>
        <mxCell id="69XmpAPmQokOdaL-FCBD-120" value="has_many" style="edgeLabel;html=1;align=center;verticalAlign=middle;resizable=0;points=[];" vertex="1" connectable="0" parent="69XmpAPmQokOdaL-FCBD-119">
          <mxGeometry x="-0.2857" y="1" relative="1" as="geometry">
            <mxPoint as="offset" />
          </mxGeometry>
        </mxCell>
        <mxCell id="69XmpAPmQokOdaL-FCBD-121" value="" style="edgeStyle=orthogonalEdgeStyle;rounded=0;orthogonalLoop=1;jettySize=auto;html=1;" edge="1" parent="69XmpAPmQokOdaL-FCBD-1" source="69XmpAPmQokOdaL-FCBD-125" target="69XmpAPmQokOdaL-FCBD-144">
          <mxGeometry relative="1" as="geometry" />
        </mxCell>
        <mxCell id="69XmpAPmQokOdaL-FCBD-122" value="has_one" style="edgeLabel;html=1;align=center;verticalAlign=middle;resizable=0;points=[];" vertex="1" connectable="0" parent="69XmpAPmQokOdaL-FCBD-121">
          <mxGeometry x="-0.1273" y="-1" relative="1" as="geometry">
            <mxPoint as="offset" />
          </mxGeometry>
        </mxCell>
        <mxCell id="69XmpAPmQokOdaL-FCBD-123" value="" style="edgeStyle=orthogonalEdgeStyle;rounded=0;orthogonalLoop=1;jettySize=auto;html=1;entryX=0.5;entryY=1;entryDx=0;entryDy=0;" edge="1" parent="69XmpAPmQokOdaL-FCBD-1" source="69XmpAPmQokOdaL-FCBD-125" target="69XmpAPmQokOdaL-FCBD-145">
          <mxGeometry relative="1" as="geometry">
            <mxPoint x="1785.75" y="165.00000000000023" as="targetPoint" />
          </mxGeometry>
        </mxCell>
        <mxCell id="69XmpAPmQokOdaL-FCBD-124" value="has_one" style="edgeLabel;html=1;align=center;verticalAlign=middle;resizable=0;points=[];" vertex="1" connectable="0" parent="69XmpAPmQokOdaL-FCBD-123">
          <mxGeometry x="0.0524" y="2" relative="1" as="geometry">
            <mxPoint as="offset" />
          </mxGeometry>
        </mxCell>
        <mxCell id="69XmpAPmQokOdaL-FCBD-125" value="Order" style="rounded=1;whiteSpace=wrap;html=1;fillColor=none;arcSize=5;strokeColor=#000000;" vertex="1" parent="69XmpAPmQokOdaL-FCBD-1">
          <mxGeometry x="1750.5" y="225" width="70.5" height="59" as="geometry" />
        </mxCell>
        <mxCell id="69XmpAPmQokOdaL-FCBD-126" style="edgeStyle=orthogonalEdgeStyle;rounded=0;orthogonalLoop=1;jettySize=auto;html=1;entryX=1.01;entryY=0.685;entryDx=0;entryDy=0;entryPerimeter=0;" edge="1" parent="69XmpAPmQokOdaL-FCBD-1" source="69XmpAPmQokOdaL-FCBD-114" target="69XmpAPmQokOdaL-FCBD-125">
          <mxGeometry relative="1" as="geometry" />
        </mxCell>
        <mxCell id="69XmpAPmQokOdaL-FCBD-127" value="has_many" style="edgeLabel;html=1;align=center;verticalAlign=middle;resizable=0;points=[];" vertex="1" connectable="0" parent="69XmpAPmQokOdaL-FCBD-126">
          <mxGeometry x="0.1168" y="1" relative="1" as="geometry">
            <mxPoint as="offset" />
          </mxGeometry>
        </mxCell>
        <mxCell id="69XmpAPmQokOdaL-FCBD-128" value="Order status" style="rounded=1;whiteSpace=wrap;html=1;fillColor=none;arcSize=5;strokeColor=#000000;" vertex="1" parent="69XmpAPmQokOdaL-FCBD-1">
          <mxGeometry x="1574.75" y="225" width="70.5" height="59" as="geometry" />
        </mxCell>
        <mxCell id="69XmpAPmQokOdaL-FCBD-129" value="registered&lt;br&gt;assembled&lt;br&gt;waiting_for_cookie&lt;br&gt;delivered" style="text;html=1;strokeColor=none;fillColor=none;align=center;verticalAlign=middle;whiteSpace=wrap;rounded=0;" vertex="1" parent="69XmpAPmQokOdaL-FCBD-1">
          <mxGeometry x="1567.37" y="165" width="85.25" height="60" as="geometry" />
        </mxCell>
        <mxCell id="69XmpAPmQokOdaL-FCBD-130" value="Order&#39;s audit log" style="rounded=1;whiteSpace=wrap;html=1;fillColor=none;arcSize=5;strokeColor=#000000;" vertex="1" parent="69XmpAPmQokOdaL-FCBD-1">
          <mxGeometry x="1574.75" y="336" width="55.25" height="59" as="geometry" />
        </mxCell>
        <mxCell id="69XmpAPmQokOdaL-FCBD-131" value="" style="edgeStyle=orthogonalEdgeStyle;rounded=0;orthogonalLoop=1;jettySize=auto;html=1;" edge="1" parent="69XmpAPmQokOdaL-FCBD-1" source="69XmpAPmQokOdaL-FCBD-133" target="69XmpAPmQokOdaL-FCBD-136">
          <mxGeometry relative="1" as="geometry" />
        </mxCell>
        <mxCell id="69XmpAPmQokOdaL-FCBD-132" value="has_one" style="edgeLabel;html=1;align=center;verticalAlign=middle;resizable=0;points=[];" vertex="1" connectable="0" parent="69XmpAPmQokOdaL-FCBD-131">
          <mxGeometry x="-0.1013" y="2" relative="1" as="geometry">
            <mxPoint as="offset" />
          </mxGeometry>
        </mxCell>
        <mxCell id="69XmpAPmQokOdaL-FCBD-133" value="Item" style="rounded=1;whiteSpace=wrap;html=1;fillColor=none;arcSize=5;strokeColor=#000000;" vertex="1" parent="69XmpAPmQokOdaL-FCBD-1">
          <mxGeometry x="1750.5" y="336" width="70.5" height="59" as="geometry" />
        </mxCell>
        <mxCell id="69XmpAPmQokOdaL-FCBD-134" value="" style="edgeStyle=orthogonalEdgeStyle;rounded=0;orthogonalLoop=1;jettySize=auto;html=1;" edge="1" parent="69XmpAPmQokOdaL-FCBD-1" source="69XmpAPmQokOdaL-FCBD-136" target="69XmpAPmQokOdaL-FCBD-137">
          <mxGeometry relative="1" as="geometry" />
        </mxCell>
        <mxCell id="69XmpAPmQokOdaL-FCBD-135" value="has_many" style="edgeLabel;html=1;align=center;verticalAlign=middle;resizable=0;points=[];" vertex="1" connectable="0" parent="69XmpAPmQokOdaL-FCBD-134">
          <mxGeometry x="-0.1878" y="1" relative="1" as="geometry">
            <mxPoint as="offset" />
          </mxGeometry>
        </mxCell>
        <mxCell id="69XmpAPmQokOdaL-FCBD-136" value="Consumable" style="rounded=1;whiteSpace=wrap;html=1;fillColor=none;arcSize=5;strokeColor=#000000;" vertex="1" parent="69XmpAPmQokOdaL-FCBD-1">
          <mxGeometry x="1750.5" y="450" width="70.5" height="59" as="geometry" />
        </mxCell>
        <mxCell id="69XmpAPmQokOdaL-FCBD-137" value="Consumable warehouse position" style="rounded=1;whiteSpace=wrap;html=1;fillColor=none;arcSize=5;strokeColor=#000000;" vertex="1" parent="69XmpAPmQokOdaL-FCBD-1">
          <mxGeometry x="1944.75" y="450" width="70.5" height="59" as="geometry" />
        </mxCell>
        <mxCell id="69XmpAPmQokOdaL-FCBD-138" value="Delivery address" style="rounded=1;whiteSpace=wrap;html=1;fillColor=none;arcSize=5;strokeColor=#000000;" vertex="1" parent="69XmpAPmQokOdaL-FCBD-1">
          <mxGeometry x="1944.75" y="56" width="70.5" height="59" as="geometry" />
        </mxCell>
        <mxCell id="69XmpAPmQokOdaL-FCBD-139" value="Worker information" style="rounded=1;whiteSpace=wrap;html=1;fillColor=none;arcSize=5;strokeColor=#000000;" vertex="1" parent="69XmpAPmQokOdaL-FCBD-1">
          <mxGeometry x="1860" y="56" width="70.5" height="59" as="geometry" />
        </mxCell>
        <mxCell id="69XmpAPmQokOdaL-FCBD-140" value="" style="edgeStyle=orthogonalEdgeStyle;rounded=0;orthogonalLoop=1;jettySize=auto;html=1;entryX=0.5;entryY=1;entryDx=0;entryDy=0;" edge="1" parent="69XmpAPmQokOdaL-FCBD-1" source="69XmpAPmQokOdaL-FCBD-144" target="69XmpAPmQokOdaL-FCBD-138">
          <mxGeometry relative="1" as="geometry">
            <mxPoint x="1980.0476190476193" y="165.00000000000023" as="targetPoint" />
          </mxGeometry>
        </mxCell>
        <mxCell id="69XmpAPmQokOdaL-FCBD-141" value="has_one" style="edgeLabel;html=1;align=center;verticalAlign=middle;resizable=0;points=[];" vertex="1" connectable="0" parent="69XmpAPmQokOdaL-FCBD-140">
          <mxGeometry x="-0.0247" relative="1" as="geometry">
            <mxPoint as="offset" />
          </mxGeometry>
        </mxCell>
        <mxCell id="69XmpAPmQokOdaL-FCBD-142" style="edgeStyle=orthogonalEdgeStyle;rounded=0;orthogonalLoop=1;jettySize=auto;html=1;exitX=0.5;exitY=1;exitDx=0;exitDy=0;" edge="1" parent="69XmpAPmQokOdaL-FCBD-1" source="69XmpAPmQokOdaL-FCBD-144" target="69XmpAPmQokOdaL-FCBD-137">
          <mxGeometry relative="1" as="geometry" />
        </mxCell>
        <mxCell id="69XmpAPmQokOdaL-FCBD-143" value="has_many" style="edgeLabel;html=1;align=center;verticalAlign=middle;resizable=0;points=[];" vertex="1" connectable="0" parent="69XmpAPmQokOdaL-FCBD-142">
          <mxGeometry x="-0.4229" y="-1" relative="1" as="geometry">
            <mxPoint as="offset" />
          </mxGeometry>
        </mxCell>
        <mxCell id="69XmpAPmQokOdaL-FCBD-144" value="Delivery box" style="rounded=1;whiteSpace=wrap;html=1;fillColor=none;arcSize=5;strokeColor=#000000;" vertex="1" parent="69XmpAPmQokOdaL-FCBD-1">
          <mxGeometry x="1950" y="225" width="60" height="61" as="geometry" />
        </mxCell>
        <mxCell id="69XmpAPmQokOdaL-FCBD-145" value="Cookie" style="rounded=1;whiteSpace=wrap;html=1;fillColor=none;arcSize=5;strokeColor=#000000;" vertex="1" parent="69XmpAPmQokOdaL-FCBD-1">
          <mxGeometry x="1750.5" y="56" width="70.5" height="59" as="geometry" />
        </mxCell>
        <mxCell id="69XmpAPmQokOdaL-FCBD-146" value="Test" style="rounded=1;whiteSpace=wrap;html=1;fillColor=none;arcSize=5;strokeColor=#000000;" vertex="1" parent="69XmpAPmQokOdaL-FCBD-1">
          <mxGeometry x="1390" y="489" width="60" height="50" as="geometry" />
        </mxCell>
        <mxCell id="69XmpAPmQokOdaL-FCBD-147" value="" style="edgeStyle=orthogonalEdgeStyle;rounded=0;orthogonalLoop=1;jettySize=auto;html=1;" edge="1" parent="69XmpAPmQokOdaL-FCBD-1" source="69XmpAPmQokOdaL-FCBD-149" target="69XmpAPmQokOdaL-FCBD-146">
          <mxGeometry relative="1" as="geometry" />
        </mxCell>
        <mxCell id="69XmpAPmQokOdaL-FCBD-148" value="has_many" style="edgeLabel;html=1;align=center;verticalAlign=middle;resizable=0;points=[];" vertex="1" connectable="0" parent="69XmpAPmQokOdaL-FCBD-147">
          <mxGeometry x="0.0094" y="-1" relative="1" as="geometry">
            <mxPoint as="offset" />
          </mxGeometry>
        </mxCell>
        <mxCell id="69XmpAPmQokOdaL-FCBD-149" value="Test Suite" style="rounded=1;whiteSpace=wrap;html=1;fillColor=none;arcSize=5;strokeColor=#000000;" vertex="1" parent="69XmpAPmQokOdaL-FCBD-1">
          <mxGeometry x="1250" y="489" width="60" height="50" as="geometry" />
        </mxCell>
        <mxCell id="69XmpAPmQokOdaL-FCBD-150" style="edgeStyle=orthogonalEdgeStyle;rounded=0;orthogonalLoop=1;jettySize=auto;html=1;exitX=0;exitY=0.5;exitDx=0;exitDy=0;entryX=1;entryY=0.5;entryDx=0;entryDy=0;" edge="1" parent="69XmpAPmQokOdaL-FCBD-1" source="69XmpAPmQokOdaL-FCBD-152" target="69XmpAPmQokOdaL-FCBD-159">
          <mxGeometry relative="1" as="geometry" />
        </mxCell>
        <mxCell id="69XmpAPmQokOdaL-FCBD-151" value="has_many" style="edgeLabel;html=1;align=center;verticalAlign=middle;resizable=0;points=[];" vertex="1" connectable="0" parent="69XmpAPmQokOdaL-FCBD-150">
          <mxGeometry x="-0.0051" relative="1" as="geometry">
            <mxPoint as="offset" />
          </mxGeometry>
        </mxCell>
        <mxCell id="69XmpAPmQokOdaL-FCBD-152" value="Manager" style="rounded=1;whiteSpace=wrap;html=1;fillColor=none;arcSize=5;strokeColor=#000000;" vertex="1" parent="69XmpAPmQokOdaL-FCBD-1">
          <mxGeometry x="1420" y="614" width="60" height="50" as="geometry" />
        </mxCell>
        <mxCell id="69XmpAPmQokOdaL-FCBD-153" value="" style="edgeStyle=orthogonalEdgeStyle;rounded=0;orthogonalLoop=1;jettySize=auto;html=1;exitX=0.25;exitY=0;exitDx=0;exitDy=0;" edge="1" parent="69XmpAPmQokOdaL-FCBD-1" source="69XmpAPmQokOdaL-FCBD-159" target="69XmpAPmQokOdaL-FCBD-149">
          <mxGeometry relative="1" as="geometry" />
        </mxCell>
        <mxCell id="69XmpAPmQokOdaL-FCBD-154" value="has_one" style="edgeLabel;html=1;align=center;verticalAlign=middle;resizable=0;points=[];" vertex="1" connectable="0" parent="69XmpAPmQokOdaL-FCBD-153">
          <mxGeometry x="-0.0667" y="1" relative="1" as="geometry">
            <mxPoint as="offset" />
          </mxGeometry>
        </mxCell>
        <mxCell id="69XmpAPmQokOdaL-FCBD-155" value="" style="edgeStyle=orthogonalEdgeStyle;rounded=0;orthogonalLoop=1;jettySize=auto;html=1;" edge="1" parent="69XmpAPmQokOdaL-FCBD-1" source="69XmpAPmQokOdaL-FCBD-158" target="69XmpAPmQokOdaL-FCBD-159">
          <mxGeometry relative="1" as="geometry" />
        </mxCell>
        <mxCell id="69XmpAPmQokOdaL-FCBD-156" value="has_one" style="edgeLabel;html=1;align=center;verticalAlign=middle;resizable=0;points=[];" vertex="1" connectable="0" parent="69XmpAPmQokOdaL-FCBD-155">
          <mxGeometry x="-0.1775" y="-2" relative="1" as="geometry">
            <mxPoint as="offset" />
          </mxGeometry>
        </mxCell>
        <mxCell id="69XmpAPmQokOdaL-FCBD-157" style="edgeStyle=orthogonalEdgeStyle;rounded=0;orthogonalLoop=1;jettySize=auto;html=1;exitX=1;exitY=0.25;exitDx=0;exitDy=0;entryX=0.75;entryY=1;entryDx=0;entryDy=0;dashed=1;dashPattern=12 12;strokeColor=#97D077;strokeWidth=2;" edge="1" parent="69XmpAPmQokOdaL-FCBD-1" source="69XmpAPmQokOdaL-FCBD-158" target="69XmpAPmQokOdaL-FCBD-79">
          <mxGeometry relative="1" as="geometry" />
        </mxCell>
        <mxCell id="69XmpAPmQokOdaL-FCBD-158" value="Worker (candidate)" style="rounded=1;whiteSpace=wrap;html=1;fillColor=none;arcSize=5;strokeColor=#000000;" vertex="1" parent="69XmpAPmQokOdaL-FCBD-1">
          <mxGeometry x="1114.5" y="609" width="70" height="60" as="geometry" />
        </mxCell>
        <mxCell id="69XmpAPmQokOdaL-FCBD-159" value="Application form" style="rounded=1;whiteSpace=wrap;html=1;fillColor=none;arcSize=5;strokeColor=#000000;" vertex="1" parent="69XmpAPmQokOdaL-FCBD-1">
          <mxGeometry x="1260" y="609" width="70" height="60" as="geometry" />
        </mxCell>
        <mxCell id="69XmpAPmQokOdaL-FCBD-160" style="edgeStyle=orthogonalEdgeStyle;rounded=0;orthogonalLoop=1;jettySize=auto;html=1;exitX=0.5;exitY=1;exitDx=0;exitDy=0;entryX=0.5;entryY=0;entryDx=0;entryDy=0;" edge="1" parent="69XmpAPmQokOdaL-FCBD-1" source="69XmpAPmQokOdaL-FCBD-159" target="69XmpAPmQokOdaL-FCBD-162">
          <mxGeometry relative="1" as="geometry" />
        </mxCell>
        <mxCell id="69XmpAPmQokOdaL-FCBD-161" value="has_many" style="edgeLabel;html=1;align=center;verticalAlign=middle;resizable=0;points=[];" vertex="1" connectable="0" parent="69XmpAPmQokOdaL-FCBD-160">
          <mxGeometry x="-0.092" y="-1" relative="1" as="geometry">
            <mxPoint as="offset" />
          </mxGeometry>
        </mxCell>
        <mxCell id="69XmpAPmQokOdaL-FCBD-162" value="Application form&#39;s audit log" style="rounded=1;whiteSpace=wrap;html=1;fillColor=none;arcSize=5;strokeColor=#000000;" vertex="1" parent="69XmpAPmQokOdaL-FCBD-1">
          <mxGeometry x="1260" y="729" width="70" height="60" as="geometry" />
        </mxCell>
        <mxCell id="69XmpAPmQokOdaL-FCBD-163" value="experience" style="text;html=1;strokeColor=none;fillColor=none;align=center;verticalAlign=middle;whiteSpace=wrap;rounded=0;" vertex="1" parent="69XmpAPmQokOdaL-FCBD-1">
          <mxGeometry x="1104.25" y="579" width="90.5" height="30" as="geometry" />
        </mxCell>
        <mxCell id="69XmpAPmQokOdaL-FCBD-164" value="Name" style="rounded=1;whiteSpace=wrap;html=1;fillColor=none;arcSize=5;strokeColor=#97D077;" vertex="1" parent="69XmpAPmQokOdaL-FCBD-1">
          <mxGeometry x="21" y="94" width="40" height="30" as="geometry" />
        </mxCell>
        <mxCell id="69XmpAPmQokOdaL-FCBD-165" value="- Master Data (producer)" style="text;html=1;strokeColor=none;fillColor=none;align=center;verticalAlign=middle;whiteSpace=wrap;rounded=0;" vertex="1" parent="69XmpAPmQokOdaL-FCBD-1">
          <mxGeometry x="51" y="45" width="120" height="30" as="geometry" />
        </mxCell>
        <mxCell id="69XmpAPmQokOdaL-FCBD-166" value="- Read Data (comsumer)" style="text;html=1;strokeColor=none;fillColor=none;align=center;verticalAlign=middle;whiteSpace=wrap;rounded=0;" vertex="1" parent="69XmpAPmQokOdaL-FCBD-1">
          <mxGeometry x="51" y="94" width="120" height="30" as="geometry" />
        </mxCell>
        <mxCell id="69XmpAPmQokOdaL-FCBD-167" value="- Direct communication" style="text;html=1;strokeColor=none;fillColor=none;align=center;verticalAlign=middle;whiteSpace=wrap;rounded=0;" vertex="1" parent="69XmpAPmQokOdaL-FCBD-1">
          <mxGeometry x="51" y="142.5" width="120" height="30" as="geometry" />
        </mxCell>
        <mxCell id="69XmpAPmQokOdaL-FCBD-168" value="- Streaming communication" style="text;html=1;strokeColor=none;fillColor=none;align=center;verticalAlign=middle;whiteSpace=wrap;rounded=0;" vertex="1" parent="69XmpAPmQokOdaL-FCBD-1">
          <mxGeometry x="51" y="185" width="120" height="30" as="geometry" />
        </mxCell>
        <mxCell id="69XmpAPmQokOdaL-FCBD-169" value="" style="endArrow=none;html=1;rounded=0;" edge="1" parent="69XmpAPmQokOdaL-FCBD-1">
          <mxGeometry width="50" height="50" relative="1" as="geometry">
            <mxPoint x="537" y="245" as="sourcePoint" />
            <mxPoint x="557" y="145" as="targetPoint" />
            <Array as="points">
              <mxPoint x="527" y="245" />
              <mxPoint x="527" y="145" />
            </Array>
          </mxGeometry>
        </mxCell>
        <mxCell id="69XmpAPmQokOdaL-FCBD-170" value="" style="endArrow=none;html=1;rounded=0;" edge="1" parent="69XmpAPmQokOdaL-FCBD-1">
          <mxGeometry width="50" height="50" relative="1" as="geometry">
            <mxPoint x="257" y="130" as="sourcePoint" />
            <mxPoint x="277" y="94" as="targetPoint" />
            <Array as="points">
              <mxPoint x="247" y="130" />
              <mxPoint x="247" y="94" />
            </Array>
          </mxGeometry>
        </mxCell>
        <mxCell id="69XmpAPmQokOdaL-FCBD-171" style="edgeStyle=orthogonalEdgeStyle;rounded=0;orthogonalLoop=1;jettySize=auto;html=1;exitX=0.5;exitY=0;exitDx=0;exitDy=0;dashed=1;dashPattern=12 12;strokeColor=#97D077;entryX=0.5;entryY=1;entryDx=0;entryDy=0;strokeWidth=2;" edge="1" parent="69XmpAPmQokOdaL-FCBD-1" source="69XmpAPmQokOdaL-FCBD-28" target="69XmpAPmQokOdaL-FCBD-64">
          <mxGeometry relative="1" as="geometry">
            <mxPoint x="179" y="985" as="sourcePoint" />
            <mxPoint x="230" y="330" as="targetPoint" />
            <Array as="points">
              <mxPoint x="810" y="455" />
              <mxPoint x="810" y="390" />
              <mxPoint x="765" y="390" />
            </Array>
          </mxGeometry>
        </mxCell>
        <mxCell id="69XmpAPmQokOdaL-FCBD-172" value="" style="endArrow=none;html=1;rounded=0;" edge="1" parent="69XmpAPmQokOdaL-FCBD-1">
          <mxGeometry width="50" height="50" relative="1" as="geometry">
            <mxPoint x="730" y="200" as="sourcePoint" />
            <mxPoint x="750" y="132.5" as="targetPoint" />
            <Array as="points">
              <mxPoint x="720" y="200" />
              <mxPoint x="720" y="132.5" />
            </Array>
          </mxGeometry>
        </mxCell>
        <mxCell id="69XmpAPmQokOdaL-FCBD-173" value="" style="endArrow=none;html=1;rounded=0;" edge="1" parent="69XmpAPmQokOdaL-FCBD-1">
          <mxGeometry width="50" height="50" relative="1" as="geometry">
            <mxPoint x="1114" y="619" as="sourcePoint" />
            <mxPoint x="1134" y="583" as="targetPoint" />
            <Array as="points">
              <mxPoint x="1104" y="619" />
              <mxPoint x="1104" y="583" />
            </Array>
          </mxGeometry>
        </mxCell>
        <mxCell id="69XmpAPmQokOdaL-FCBD-174" value="" style="endArrow=none;html=1;rounded=0;" edge="1" parent="69XmpAPmQokOdaL-FCBD-1">
          <mxGeometry width="50" height="50" relative="1" as="geometry">
            <mxPoint x="1244.25" y="111" as="sourcePoint" />
            <mxPoint x="1289.5" y="55" as="targetPoint" />
            <Array as="points">
              <mxPoint x="1234.25" y="111" />
              <mxPoint x="1234.5" y="55" />
            </Array>
          </mxGeometry>
        </mxCell>
        <mxCell id="69XmpAPmQokOdaL-FCBD-175" value="" style="endArrow=none;html=1;rounded=0;" edge="1" parent="69XmpAPmQokOdaL-FCBD-1">
          <mxGeometry width="50" height="50" relative="1" as="geometry">
            <mxPoint x="1400" y="213" as="sourcePoint" />
            <mxPoint x="1449" y="177" as="targetPoint" />
            <Array as="points">
              <mxPoint x="1390" y="213" />
              <mxPoint x="1390" y="177" />
            </Array>
          </mxGeometry>
        </mxCell>
        <mxCell id="69XmpAPmQokOdaL-FCBD-176" value="" style="endArrow=none;html=1;rounded=0;" edge="1" parent="69XmpAPmQokOdaL-FCBD-1">
          <mxGeometry width="50" height="50" relative="1" as="geometry">
            <mxPoint x="1254.5" y="221.5" as="sourcePoint" />
            <mxPoint x="1303.5" y="185.5" as="targetPoint" />
            <Array as="points">
              <mxPoint x="1244.5" y="221.5" />
              <mxPoint x="1244.5" y="185.5" />
            </Array>
          </mxGeometry>
        </mxCell>
        <mxCell id="69XmpAPmQokOdaL-FCBD-177" style="edgeStyle=orthogonalEdgeStyle;rounded=0;orthogonalLoop=1;jettySize=auto;html=1;entryX=0.75;entryY=0;entryDx=0;entryDy=0;dashed=1;dashPattern=12 12;strokeColor=#97D077;strokeWidth=2;" edge="1" parent="69XmpAPmQokOdaL-FCBD-1" target="69XmpAPmQokOdaL-FCBD-35">
          <mxGeometry relative="1" as="geometry">
            <mxPoint x="850" y="493" as="sourcePoint" />
            <Array as="points">
              <mxPoint x="880" y="493" />
              <mxPoint x="880" y="680" />
              <mxPoint x="856" y="680" />
            </Array>
          </mxGeometry>
        </mxCell>
        <mxCell id="69XmpAPmQokOdaL-FCBD-178" value="" style="endArrow=none;html=1;rounded=0;" edge="1" parent="69XmpAPmQokOdaL-FCBD-1">
          <mxGeometry width="50" height="50" relative="1" as="geometry">
            <mxPoint x="1575" y="235" as="sourcePoint" />
            <mxPoint x="1630" y="155" as="targetPoint" />
            <Array as="points">
              <mxPoint x="1560" y="235" />
              <mxPoint x="1560" y="155" />
            </Array>
          </mxGeometry>
        </mxCell>
        <mxCell id="69XmpAPmQokOdaL-FCBD-179" value="" style="endArrow=none;html=1;rounded=0;" edge="1" parent="69XmpAPmQokOdaL-FCBD-1">
          <mxGeometry width="50" height="50" relative="1" as="geometry">
            <mxPoint x="464.5" y="670" as="sourcePoint" />
            <mxPoint x="504.5" y="620" as="targetPoint" />
            <Array as="points">
              <mxPoint x="454.5" y="670" />
              <mxPoint x="454.5" y="620" />
            </Array>
          </mxGeometry>
        </mxCell>
        <mxCell id="gZZeGeFW_DVCF1Tlqr3d-0" value="ПОКА НИКАКИХ ИЗМЕНЕНИЙ, ПРОСТО ДУБЛИКАТ" style="rounded=1;whiteSpace=wrap;html=1;fillColor=none;arcSize=5;strokeColor=#000000;" vertex="1" parent="69XmpAPmQokOdaL-FCBD-1">
          <mxGeometry x="40" y="284" width="120" height="116" as="geometry" />
        </mxCell>
      </root>
    </mxGraphModel>
  </diagram>
</mxfile>
